<svg width="47" height="36" viewBox="0 0 47 36" fill="none" xmlns="http://www.w3.org/2000/svg">
<g filter="url(#filter0_d_55_52)">
<mask id="path-1-outside-1_55_52" maskUnits="userSpaceOnUse" x="3" y="0" width="40" height="29" fill="black">
<rect fill="white" x="3" width="40" height="29"/>
<path d="M22.3389 1.26L23.1669 1.224H23.2029C23.8509 1.224 24.1989 1.296 24.2469 1.44C24.2709 1.536 24.5949 5.424 25.2189 13.104C25.8189 20.832 26.1429 24.72 26.1909 24.768C26.2149 24.792 26.2989 24.828 26.4429 24.876C26.7309 24.948 27.4269 24.984 28.5309 24.984H29.2509L29.3949 25.092C29.4669 25.212 29.5029 25.296 29.5029 25.344L29.1789 26.784C29.1069 26.928 28.8429 26.988 28.3869 26.964C28.2909 26.964 28.1109 26.964 27.8469 26.964C24.3669 26.868 21.5229 26.88 19.3149 27H18.8829L18.7749 26.892C18.6789 26.796 18.6309 26.7 18.6309 26.604C18.6309 26.22 18.7509 25.752 18.9909 25.2C19.0389 25.056 19.3869 24.984 20.0349 24.984C20.6109 24.936 20.9949 24.912 21.1869 24.912C21.7389 24.816 22.0389 24.72 22.0869 24.624C22.1109 24.6 22.0629 23.808 21.9429 22.248C21.8229 20.856 21.7629 20.064 21.7629 19.872C21.7629 19.824 20.3949 19.8 17.6589 19.8H13.5189L12.4389 21.708C11.6709 23.004 11.2749 23.712 11.2509 23.832C11.1549 24.072 11.1909 24.276 11.3589 24.444C11.5989 24.732 12.1149 24.912 12.9069 24.984C13.2429 24.984 13.4589 25.068 13.5549 25.236L13.5909 25.344L13.4109 26.064C13.3149 26.52 13.2189 26.796 13.1229 26.892L13.0149 27H12.5829C10.5909 26.904 8.70692 26.88 6.93092 26.928C5.70692 26.976 5.08292 27 5.05892 27H4.80692L4.69892 26.892C4.60292 26.796 4.55492 26.712 4.55492 26.64L4.87892 25.2C4.97492 25.056 5.25092 24.984 5.70692 24.984C7.38692 24.912 8.55092 24.432 9.19892 23.544L15.7149 12.384C19.8909 5.16 22.0269 1.5 22.1229 1.404C22.1469 1.38 22.2189 1.332 22.3389 1.26ZM21.1869 12.6C20.9229 9.168 20.7909 7.428 20.7909 7.38C20.7909 7.284 20.2629 8.16 19.2069 10.008L16.1829 15.228L14.7069 17.748L18.1269 17.784H21.5829C21.5829 17.808 21.4509 16.08 21.1869 12.6ZM38.6469 3.276C39.1269 3.156 39.5829 3.192 40.0149 3.384C40.6629 3.696 40.9509 4.248 40.8789 5.04C40.8549 5.16 40.8309 5.268 40.8069 5.364C40.5429 6.276 39.9429 6.888 39.0069 7.2C38.9589 7.2 38.9109 7.212 38.8629 7.236C38.1669 7.428 37.5789 7.284 37.0989 6.804C36.5469 6.228 36.4869 5.532 36.9189 4.716C37.2549 3.948 37.8309 3.468 38.6469 3.276ZM35.4429 11.16C35.7789 11.088 36.2109 11.076 36.7389 11.124C38.1309 11.388 39.0069 12.144 39.3669 13.392C39.4869 13.896 39.4869 14.424 39.3669 14.976L37.7469 19.368C36.6669 22.2 36.1149 23.676 36.0909 23.796C35.8029 24.732 35.7909 25.332 36.0549 25.596C36.1269 25.644 36.2589 25.668 36.4509 25.668C36.7149 25.668 36.8829 25.656 36.9549 25.632C37.9869 25.272 38.7789 24.204 39.3309 22.428C39.3789 22.332 39.4149 22.224 39.4389 22.104C39.5589 21.744 39.6789 21.552 39.7989 21.528C39.8709 21.504 40.0869 21.492 40.4469 21.492C40.9029 21.492 41.1549 21.516 41.2029 21.564C41.3229 21.66 41.3469 21.864 41.2749 22.176C40.8189 23.76 40.0989 25.044 39.1149 26.028C38.4429 26.652 37.7589 27.072 37.0629 27.288C36.8229 27.336 36.4989 27.36 36.0909 27.36C35.6589 27.36 35.3469 27.336 35.1549 27.288C34.3869 27.096 33.8109 26.748 33.4269 26.244C33.1389 25.908 32.9469 25.524 32.8509 25.092C32.7309 24.564 32.7309 24.024 32.8509 23.472L34.5069 19.044C35.6109 16.092 36.1989 14.472 36.2709 14.184C36.3669 13.776 36.3669 13.416 36.2709 13.104C36.1509 12.816 35.8869 12.72 35.4789 12.816C34.7589 12.96 34.1109 13.512 33.5349 14.472C33.1749 15.072 32.8869 15.804 32.6709 16.668C32.5989 16.812 32.5509 16.896 32.5269 16.92C32.4789 16.968 32.2269 16.992 31.7709 16.992H31.0869L30.9789 16.884C30.8589 16.788 30.8709 16.536 31.0149 16.128C31.6149 14.112 32.5869 12.66 33.9309 11.772C34.0509 11.7 34.1829 11.628 34.3269 11.556C34.7589 11.316 35.1309 11.184 35.4429 11.16Z"/>
</mask>
<path d="M22.3389 1.26L23.1669 1.224H23.2029C23.8509 1.224 24.1989 1.296 24.2469 1.44C24.2709 1.536 24.5949 5.424 25.2189 13.104C25.8189 20.832 26.1429 24.72 26.1909 24.768C26.2149 24.792 26.2989 24.828 26.4429 24.876C26.7309 24.948 27.4269 24.984 28.5309 24.984H29.2509L29.3949 25.092C29.4669 25.212 29.5029 25.296 29.5029 25.344L29.1789 26.784C29.1069 26.928 28.8429 26.988 28.3869 26.964C28.2909 26.964 28.1109 26.964 27.8469 26.964C24.3669 26.868 21.5229 26.88 19.3149 27H18.8829L18.7749 26.892C18.6789 26.796 18.6309 26.7 18.6309 26.604C18.6309 26.22 18.7509 25.752 18.9909 25.2C19.0389 25.056 19.3869 24.984 20.0349 24.984C20.6109 24.936 20.9949 24.912 21.1869 24.912C21.7389 24.816 22.0389 24.72 22.0869 24.624C22.1109 24.6 22.0629 23.808 21.9429 22.248C21.8229 20.856 21.7629 20.064 21.7629 19.872C21.7629 19.824 20.3949 19.8 17.6589 19.8H13.5189L12.4389 21.708C11.6709 23.004 11.2749 23.712 11.2509 23.832C11.1549 24.072 11.1909 24.276 11.3589 24.444C11.5989 24.732 12.1149 24.912 12.9069 24.984C13.2429 24.984 13.4589 25.068 13.5549 25.236L13.5909 25.344L13.4109 26.064C13.3149 26.52 13.2189 26.796 13.1229 26.892L13.0149 27H12.5829C10.5909 26.904 8.70692 26.88 6.93092 26.928C5.70692 26.976 5.08292 27 5.05892 27H4.80692L4.69892 26.892C4.60292 26.796 4.55492 26.712 4.55492 26.64L4.87892 25.2C4.97492 25.056 5.25092 24.984 5.70692 24.984C7.38692 24.912 8.55092 24.432 9.19892 23.544L15.7149 12.384C19.8909 5.16 22.0269 1.5 22.1229 1.404C22.1469 1.38 22.2189 1.332 22.3389 1.26ZM21.1869 12.6C20.9229 9.168 20.7909 7.428 20.7909 7.38C20.7909 7.284 20.2629 8.16 19.2069 10.008L16.1829 15.228L14.7069 17.748L18.1269 17.784H21.5829C21.5829 17.808 21.4509 16.08 21.1869 12.6ZM38.6469 3.276C39.1269 3.156 39.5829 3.192 40.0149 3.384C40.6629 3.696 40.9509 4.248 40.8789 5.04C40.8549 5.16 40.8309 5.268 40.8069 5.364C40.5429 6.276 39.9429 6.888 39.0069 7.2C38.9589 7.2 38.9109 7.212 38.8629 7.236C38.1669 7.428 37.5789 7.284 37.0989 6.804C36.5469 6.228 36.4869 5.532 36.9189 4.716C37.2549 3.948 37.8309 3.468 38.6469 3.276ZM35.4429 11.16C35.7789 11.088 36.2109 11.076 36.7389 11.124C38.1309 11.388 39.0069 12.144 39.3669 13.392C39.4869 13.896 39.4869 14.424 39.3669 14.976L37.7469 19.368C36.6669 22.2 36.1149 23.676 36.0909 23.796C35.8029 24.732 35.7909 25.332 36.0549 25.596C36.1269 25.644 36.2589 25.668 36.4509 25.668C36.7149 25.668 36.8829 25.656 36.9549 25.632C37.9869 25.272 38.7789 24.204 39.3309 22.428C39.3789 22.332 39.4149 22.224 39.4389 22.104C39.5589 21.744 39.6789 21.552 39.7989 21.528C39.8709 21.504 40.0869 21.492 40.4469 21.492C40.9029 21.492 41.1549 21.516 41.2029 21.564C41.3229 21.66 41.3469 21.864 41.2749 22.176C40.8189 23.76 40.0989 25.044 39.1149 26.028C38.4429 26.652 37.7589 27.072 37.0629 27.288C36.8229 27.336 36.4989 27.36 36.0909 27.36C35.6589 27.36 35.3469 27.336 35.1549 27.288C34.3869 27.096 33.8109 26.748 33.4269 26.244C33.1389 25.908 32.9469 25.524 32.8509 25.092C32.7309 24.564 32.7309 24.024 32.8509 23.472L34.5069 19.044C35.6109 16.092 36.1989 14.472 36.2709 14.184C36.3669 13.776 36.3669 13.416 36.2709 13.104C36.1509 12.816 35.8869 12.72 35.4789 12.816C34.7589 12.96 34.1109 13.512 33.5349 14.472C33.1749 15.072 32.8869 15.804 32.6709 16.668C32.5989 16.812 32.5509 16.896 32.5269 16.92C32.4789 16.968 32.2269 16.992 31.7709 16.992H31.0869L30.9789 16.884C30.8589 16.788 30.8709 16.536 31.0149 16.128C31.6149 14.112 32.5869 12.66 33.9309 11.772C34.0509 11.7 34.1829 11.628 34.3269 11.556C34.7589 11.316 35.1309 11.184 35.4429 11.16Z" fill="black"/>
<path d="M22.3389 1.26L22.2955 0.260943L22.042 0.271964L21.8244 0.402508L22.3389 1.26ZM23.1669 1.224V0.223999H23.1452L23.1235 0.224943L23.1669 1.224ZM24.2469 1.44L25.2171 1.19747L25.2078 1.16021L25.1956 1.12377L24.2469 1.44ZM25.2189 13.104L26.2159 13.0266L26.2156 13.023L25.2189 13.104ZM26.1909 24.768L26.898 24.0609L26.898 24.0609L26.1909 24.768ZM26.4429 24.876L26.1267 25.8247L26.1631 25.8368L26.2004 25.8461L26.4429 24.876ZM29.2509 24.984L29.8509 24.184L29.5843 23.984H29.2509V24.984ZM29.3949 25.092L30.2524 24.5775L30.1516 24.4095L29.9949 24.292L29.3949 25.092ZM29.5029 25.344L30.4785 25.5635L30.5029 25.4551V25.344H29.5029ZM29.1789 26.784L30.0733 27.2312L30.1278 27.1223L30.1545 27.0035L29.1789 26.784ZM28.3869 26.964L28.4395 25.9654L28.4132 25.964H28.3869V26.964ZM27.8469 26.964L27.8193 27.9636L27.8331 27.964H27.8469V26.964ZM19.3149 27V28H19.3421L19.3692 27.9985L19.3149 27ZM18.8829 27L18.1758 27.7071L18.4687 28H18.8829V27ZM18.7749 26.892L18.0678 27.5991L18.0678 27.5991L18.7749 26.892ZM18.9909 25.2L19.908 25.5987L19.9256 25.5582L19.9396 25.5162L18.9909 25.2ZM20.0349 24.984V25.984H20.0765L20.118 25.9805L20.0349 24.984ZM21.1869 24.912V25.912H21.2732L21.3583 25.8972L21.1869 24.912ZM22.0869 24.624L21.3798 23.9169L21.2651 24.0316L21.1925 24.1768L22.0869 24.624ZM21.9429 22.248L22.94 22.1713L22.9392 22.1621L21.9429 22.248ZM13.5189 19.8V18.8H12.9359L12.6487 19.3074L13.5189 19.8ZM12.4389 21.708L13.2992 22.2178L13.3043 22.2092L13.3092 22.2006L12.4389 21.708ZM11.2509 23.832L12.1794 24.2034L12.2135 24.1181L12.2315 24.0281L11.2509 23.832ZM11.3589 24.444L12.1271 23.8038L12.0981 23.769L12.066 23.7369L11.3589 24.444ZM12.9069 24.984L12.8164 25.9799L12.8616 25.984H12.9069V24.984ZM13.5549 25.236L14.5036 24.9198L14.4723 24.8258L14.4232 24.7399L13.5549 25.236ZM13.5909 25.344L14.5611 25.5865L14.6317 25.304L14.5396 25.0278L13.5909 25.344ZM13.4109 26.064L12.4408 25.8215L12.4362 25.8396L12.4324 25.858L13.4109 26.064ZM13.1229 26.892L12.4158 26.1849L12.4158 26.1849L13.1229 26.892ZM13.0149 27V28H13.4291L13.722 27.7071L13.0149 27ZM12.5829 27L12.5348 27.9988L12.5588 28H12.5829V27ZM6.93092 26.928L6.9039 25.9283L6.89174 25.9288L6.93092 26.928ZM4.80692 27L4.09982 27.7071L4.39271 28H4.80692V27ZM4.69892 26.892L3.99182 27.5991L3.99182 27.5991L4.69892 26.892ZM4.55492 26.64L3.57931 26.4205L3.55492 26.5289V26.64H4.55492ZM4.87892 25.2L4.04687 24.6453L3.94402 24.7996L3.90331 24.9805L4.87892 25.2ZM5.70692 24.984V25.984H5.72834L5.74974 25.9831L5.70692 24.984ZM9.19892 23.544L10.0067 24.1335L10.0368 24.0923L10.0625 24.0482L9.19892 23.544ZM15.7149 12.384L16.5785 12.8882L16.5807 12.8845L15.7149 12.384ZM22.1229 1.404L21.4158 0.696871L21.4158 0.696898L22.1229 1.404ZM21.1869 12.6L22.1841 12.5244L22.184 12.5233L21.1869 12.6ZM19.2069 10.008L20.0722 10.5093L20.0752 10.5041L19.2069 10.008ZM16.1829 15.228L17.0458 15.7334L17.0482 15.7293L16.1829 15.228ZM14.7069 17.748L13.844 17.2426L12.973 18.7298L14.6964 18.7479L14.7069 17.748ZM18.1269 17.784L18.1164 18.784H18.1269V17.784ZM21.5829 17.784H22.5829V16.784H21.5829V17.784ZM22.3824 2.25905L23.2104 2.22306L23.1235 0.224943L22.2955 0.260943L22.3824 2.25905ZM23.1669 2.224H23.2029V0.223999H23.1669V2.224ZM23.2029 2.224C23.5047 2.224 23.6734 2.24197 23.7473 2.25726C23.7865 2.26537 23.7478 2.26267 23.6758 2.22339C23.6092 2.18705 23.3976 2.05417 23.2982 1.75622L25.1956 1.12377C25.0723 0.753826 24.7992 0.557948 24.6335 0.467603C24.4625 0.374327 24.2873 0.326632 24.1525 0.298739C23.8784 0.242026 23.5492 0.223999 23.2029 0.223999V2.224ZM23.2768 1.68253C23.257 1.60331 23.2524 1.53245 23.2607 1.60971C23.2639 1.6389 23.2684 1.68431 23.2745 1.74815C23.2865 1.8749 23.3033 2.0617 23.325 2.31002C23.3683 2.80598 23.4304 3.53938 23.5114 4.51104C23.6733 6.45398 23.9102 9.34515 24.2222 13.185L26.2156 13.023C25.9036 9.18285 25.6666 6.29002 25.5045 4.34495C25.4234 3.37262 25.3611 2.63602 25.3174 2.13598C25.2956 1.88629 25.2783 1.6936 25.2655 1.55934C25.2592 1.49269 25.2537 1.43722 25.2492 1.39516C25.247 1.37461 25.2445 1.3529 25.2419 1.33278C25.2406 1.32295 25.2388 1.30904 25.2364 1.29353C25.2353 1.28685 25.2292 1.24612 25.2171 1.19747L23.2768 1.68253ZM24.2219 13.1814C24.522 17.0458 24.7531 19.9521 24.9154 21.899C24.9964 22.8719 25.0606 23.6084 25.1076 24.1061C25.131 24.3539 25.1508 24.5484 25.1667 24.6853C25.1744 24.752 25.1824 24.8156 25.1907 24.8684C25.1944 24.8925 25.2008 24.9313 25.2103 24.9732C25.2146 24.9923 25.2243 25.0332 25.2409 25.0823C25.249 25.1066 25.2647 25.1503 25.2898 25.2021C25.3075 25.2387 25.366 25.3572 25.4838 25.4751L26.898 24.0609C27.0151 24.178 27.0728 24.2953 27.0897 24.3302C27.114 24.3804 27.1288 24.4219 27.1361 24.4435C27.1509 24.4874 27.1586 24.5212 27.1609 24.5313C27.1663 24.5552 27.1681 24.5685 27.1667 24.5596C27.1646 24.5464 27.1602 24.514 27.1533 24.4547C27.14 24.3396 27.1218 24.1621 27.0987 23.9179C27.0528 23.4316 26.9894 22.7041 26.9085 21.733C26.7467 19.7919 26.5159 16.8902 26.2159 13.0266L24.2219 13.1814ZM25.4838 25.4751C25.5886 25.5799 25.6947 25.6403 25.7345 25.6624C25.7882 25.6922 25.839 25.7154 25.878 25.7321C25.9566 25.7658 26.0431 25.7968 26.1267 25.8247L26.7592 23.9273C26.7307 23.9178 26.7086 23.9101 26.6919 23.9039C26.6836 23.9009 26.6773 23.8985 26.6728 23.8967C26.6705 23.8958 26.6688 23.8951 26.6676 23.8946C26.6664 23.8941 26.6658 23.8939 26.6658 23.8939C26.6658 23.8939 26.6666 23.8942 26.668 23.8948C26.6694 23.8954 26.6716 23.8965 26.6747 23.8979C26.6803 23.9006 26.6912 23.906 26.7058 23.9141C26.7197 23.9218 26.7432 23.9355 26.7719 23.9554C26.7986 23.9738 26.8456 24.0085 26.898 24.0609L25.4838 25.4751ZM26.2004 25.8461C26.4474 25.9079 26.7795 25.9376 27.1293 25.9557C27.5014 25.9749 27.9704 25.984 28.5309 25.984V23.984C27.9875 23.984 27.5565 23.9751 27.2326 23.9583C27.0707 23.95 26.9425 23.94 26.8445 23.9292C26.7959 23.9239 26.758 23.9187 26.7295 23.9141C26.7155 23.9118 26.7047 23.9099 26.697 23.9083C26.6932 23.9076 26.6903 23.907 26.6883 23.9065C26.6863 23.9061 26.6854 23.9058 26.6855 23.9059L26.2004 25.8461ZM28.5309 25.984H29.2509V23.984H28.5309V25.984ZM28.6509 25.784L28.7949 25.892L29.9949 24.292L29.8509 24.184L28.6509 25.784ZM28.5374 25.6065C28.561 25.6458 28.5633 25.6541 28.5568 25.6389C28.5532 25.6306 28.5423 25.6044 28.5314 25.5644C28.5216 25.5283 28.5029 25.4497 28.5029 25.344H30.5029C30.5029 25.1113 30.4269 24.9254 30.3951 24.8511C30.3526 24.7519 30.3008 24.6582 30.2524 24.5775L28.5374 25.6065ZM28.5273 25.1245L28.2033 26.5645L30.1545 27.0035L30.4785 25.5635L28.5273 25.1245ZM28.2845 26.3368C28.3677 26.1705 28.4866 26.0721 28.5699 26.0215C28.6474 25.9745 28.703 25.9624 28.7053 25.9619C28.7107 25.9606 28.6929 25.965 28.643 25.9675C28.5947 25.9699 28.5279 25.97 28.4395 25.9654L28.3344 27.9626C28.6006 27.9766 28.886 27.9718 29.1485 27.9121C29.3791 27.8597 29.8347 27.7086 30.0733 27.2312L28.2845 26.3368ZM28.3869 25.964C28.3867 25.964 28.3865 25.964 28.3864 25.964C28.3862 25.964 28.386 25.964 28.3858 25.964C28.3856 25.964 28.3854 25.964 28.3852 25.964C28.385 25.964 28.3848 25.964 28.3847 25.964C28.3845 25.964 28.3843 25.964 28.3841 25.964C28.3839 25.964 28.3837 25.964 28.3835 25.964C28.3833 25.964 28.3831 25.964 28.3829 25.964C28.3827 25.964 28.3826 25.964 28.3824 25.964C28.3822 25.964 28.382 25.964 28.3818 25.964C28.3816 25.964 28.3814 25.964 28.3812 25.964C28.381 25.964 28.3808 25.964 28.3806 25.964C28.3804 25.964 28.3802 25.964 28.38 25.964C28.3798 25.964 28.3796 25.964 28.3794 25.964C28.3793 25.964 28.3791 25.964 28.3789 25.964C28.3787 25.964 28.3785 25.964 28.3783 25.964C28.3781 25.964 28.3779 25.964 28.3777 25.964C28.3775 25.964 28.3773 25.964 28.3771 25.964C28.3769 25.964 28.3767 25.964 28.3765 25.964C28.3763 25.964 28.3761 25.964 28.3759 25.964C28.3757 25.964 28.3755 25.964 28.3753 25.964C28.3751 25.964 28.3749 25.964 28.3747 25.964C28.3745 25.964 28.3743 25.964 28.3741 25.964C28.3739 25.964 28.3737 25.964 28.3735 25.964C28.3733 25.964 28.3731 25.964 28.3729 25.964C28.3727 25.964 28.3725 25.964 28.3723 25.964C28.3721 25.964 28.3719 25.964 28.3716 25.964C28.3714 25.964 28.3712 25.964 28.371 25.964C28.3708 25.964 28.3706 25.964 28.3704 25.964C28.3702 25.964 28.37 25.964 28.3698 25.964C28.3696 25.964 28.3694 25.964 28.3692 25.964C28.369 25.964 28.3688 25.964 28.3686 25.964C28.3684 25.964 28.3681 25.964 28.3679 25.964C28.3677 25.964 28.3675 25.964 28.3673 25.964C28.3671 25.964 28.3669 25.964 28.3667 25.964C28.3665 25.964 28.3663 25.964 28.3661 25.964C28.3658 25.964 28.3656 25.964 28.3654 25.964C28.3652 25.964 28.365 25.964 28.3648 25.964C28.3646 25.964 28.3644 25.964 28.3642 25.964C28.3639 25.964 28.3637 25.964 28.3635 25.964C28.3633 25.964 28.3631 25.964 28.3629 25.964C28.3627 25.964 28.3625 25.964 28.3622 25.964C28.362 25.964 28.3618 25.964 28.3616 25.964C28.3614 25.964 28.3612 25.964 28.361 25.964C28.3607 25.964 28.3605 25.964 28.3603 25.964C28.3601 25.964 28.3599 25.964 28.3597 25.964C28.3594 25.964 28.3592 25.964 28.359 25.964C28.3588 25.964 28.3586 25.964 28.3584 25.964C28.3581 25.964 28.3579 25.964 28.3577 25.964C28.3575 25.964 28.3573 25.964 28.3571 25.964C28.3568 25.964 28.3566 25.964 28.3564 25.964C28.3562 25.964 28.356 25.964 28.3557 25.964C28.3555 25.964 28.3553 25.964 28.3551 25.964C28.3549 25.964 28.3546 25.964 28.3544 25.964C28.3542 25.964 28.354 25.964 28.3537 25.964C28.3535 25.964 28.3533 25.964 28.3531 25.964C28.3529 25.964 28.3526 25.964 28.3524 25.964C28.3522 25.964 28.352 25.964 28.3517 25.964C28.3515 25.964 28.3513 25.964 28.3511 25.964C28.3508 25.964 28.3506 25.964 28.3504 25.964C28.3502 25.964 28.3499 25.964 28.3497 25.964C28.3495 25.964 28.3493 25.964 28.349 25.964C28.3488 25.964 28.3486 25.964 28.3484 25.964C28.3481 25.964 28.3479 25.964 28.3477 25.964C28.3474 25.964 28.3472 25.964 28.347 25.964C28.3468 25.964 28.3465 25.964 28.3463 25.964C28.3461 25.964 28.3458 25.964 28.3456 25.964C28.3454 25.964 28.3452 25.964 28.3449 25.964C28.3447 25.964 28.3445 25.964 28.3442 25.964C28.344 25.964 28.3438 25.964 28.3435 25.964C28.3433 25.964 28.3431 25.964 28.3428 25.964C28.3426 25.964 28.3424 25.964 28.3421 25.964C28.3419 25.964 28.3417 25.964 28.3414 25.964C28.3412 25.964 28.341 25.964 28.3407 25.964C28.3405 25.964 28.3403 25.964 28.34 25.964C28.3398 25.964 28.3396 25.964 28.3393 25.964C28.3391 25.964 28.3389 25.964 28.3386 25.964C28.3384 25.964 28.3381 25.964 28.3379 25.964C28.3377 25.964 28.3374 25.964 28.3372 25.964C28.337 25.964 28.3367 25.964 28.3365 25.964C28.3362 25.964 28.336 25.964 28.3358 25.964C28.3355 25.964 28.3353 25.964 28.3351 25.964C28.3348 25.964 28.3346 25.964 28.3343 25.964C28.3341 25.964 28.3339 25.964 28.3336 25.964C28.3334 25.964 28.3331 25.964 28.3329 25.964C28.3326 25.964 28.3324 25.964 28.3322 25.964C28.3319 25.964 28.3317 25.964 28.3314 25.964C28.3312 25.964 28.331 25.964 28.3307 25.964C28.3305 25.964 28.3302 25.964 28.33 25.964C28.3297 25.964 28.3295 25.964 28.3292 25.964C28.329 25.964 28.3288 25.964 28.3285 25.964C28.3283 25.964 28.328 25.964 28.3278 25.964C28.3275 25.964 28.3273 25.964 28.327 25.964C28.3268 25.964 28.3265 25.964 28.3263 25.964C28.326 25.964 28.3258 25.964 28.3256 25.964C28.3253 25.964 28.3251 25.964 28.3248 25.964C28.3246 25.964 28.3243 25.964 28.3241 25.964C28.3238 25.964 28.3236 25.964 28.3233 25.964C28.3231 25.964 28.3228 25.964 28.3226 25.964C28.3223 25.964 28.3221 25.964 28.3218 25.964C28.3216 25.964 28.3213 25.964 28.3211 25.964C28.3208 25.964 28.3206 25.964 28.3203 25.964C28.3201 25.964 28.3198 25.964 28.3195 25.964C28.3193 25.964 28.319 25.964 28.3188 25.964C28.3185 25.964 28.3183 25.964 28.318 25.964C28.3178 25.964 28.3175 25.964 28.3173 25.964C28.317 25.964 28.3168 25.964 28.3165 25.964C28.3162 25.964 28.316 25.964 28.3157 25.964C28.3155 25.964 28.3152 25.964 28.315 25.964C28.3147 25.964 28.3144 25.964 28.3142 25.964C28.3139 25.964 28.3137 25.964 28.3134 25.964C28.3132 25.964 28.3129 25.964 28.3126 25.964C28.3124 25.964 28.3121 25.964 28.3119 25.964C28.3116 25.964 28.3113 25.964 28.3111 25.964C28.3108 25.964 28.3106 25.964 28.3103 25.964C28.31 25.964 28.3098 25.964 28.3095 25.964C28.3093 25.964 28.309 25.964 28.3087 25.964C28.3085 25.964 28.3082 25.964 28.308 25.964C28.3077 25.964 28.3074 25.964 28.3072 25.964C28.3069 25.964 28.3066 25.964 28.3064 25.964C28.3061 25.964 28.3058 25.964 28.3056 25.964C28.3053 25.964 28.3051 25.964 28.3048 25.964C28.3045 25.964 28.3043 25.964 28.304 25.964C28.3037 25.964 28.3035 25.964 28.3032 25.964C28.3029 25.964 28.3027 25.964 28.3024 25.964C28.3021 25.964 28.3019 25.964 28.3016 25.964C28.3013 25.964 28.3011 25.964 28.3008 25.964C28.3005 25.964 28.3002 25.964 28.3 25.964C28.2997 25.964 28.2994 25.964 28.2992 25.964C28.2989 25.964 28.2986 25.964 28.2984 25.964C28.2981 25.964 28.2978 25.964 28.2976 25.964C28.2973 25.964 28.297 25.964 28.2967 25.964C28.2965 25.964 28.2962 25.964 28.2959 25.964C28.2957 25.964 28.2954 25.964 28.2951 25.964C28.2948 25.964 28.2946 25.964 28.2943 25.964C28.294 25.964 28.2937 25.964 28.2935 25.964C28.2932 25.964 28.2929 25.964 28.2926 25.964C28.2924 25.964 28.2921 25.964 28.2918 25.964C28.2915 25.964 28.2913 25.964 28.291 25.964C28.2907 25.964 28.2904 25.964 28.2902 25.964C28.2899 25.964 28.2896 25.964 28.2893 25.964C28.2891 25.964 28.2888 25.964 28.2885 25.964C28.2882 25.964 28.2879 25.964 28.2877 25.964C28.2874 25.964 28.2871 25.964 28.2868 25.964C28.2865 25.964 28.2863 25.964 28.286 25.964C28.2857 25.964 28.2854 25.964 28.2851 25.964C28.2849 25.964 28.2846 25.964 28.2843 25.964C28.284 25.964 28.2837 25.964 28.2835 25.964C28.2832 25.964 28.2829 25.964 28.2826 25.964C28.2823 25.964 28.2821 25.964 28.2818 25.964C28.2815 25.964 28.2812 25.964 28.2809 25.964C28.2806 25.964 28.2804 25.964 28.2801 25.964C28.2798 25.964 28.2795 25.964 28.2792 25.964C28.2789 25.964 28.2786 25.964 28.2784 25.964C28.2781 25.964 28.2778 25.964 28.2775 25.964C28.2772 25.964 28.2769 25.964 28.2766 25.964C28.2764 25.964 28.2761 25.964 28.2758 25.964C28.2755 25.964 28.2752 25.964 28.2749 25.964C28.2746 25.964 28.2743 25.964 28.274 25.964C28.2738 25.964 28.2735 25.964 28.2732 25.964C28.2729 25.964 28.2726 25.964 28.2723 25.964C28.272 25.964 28.2717 25.964 28.2714 25.964C28.2712 25.964 28.2709 25.964 28.2706 25.964C28.2703 25.964 28.27 25.964 28.2697 25.964C28.2694 25.964 28.2691 25.964 28.2688 25.964C28.2685 25.964 28.2682 25.964 28.2679 25.964C28.2676 25.964 28.2674 25.964 28.2671 25.964C28.2668 25.964 28.2665 25.964 28.2662 25.964C28.2659 25.964 28.2656 25.964 28.2653 25.964C28.265 25.964 28.2647 25.964 28.2644 25.964C28.2641 25.964 28.2638 25.964 28.2635 25.964C28.2632 25.964 28.2629 25.964 28.2626 25.964C28.2623 25.964 28.262 25.964 28.2617 25.964C28.2614 25.964 28.2611 25.964 28.2608 25.964C28.2605 25.964 28.2602 25.964 28.2599 25.964C28.2596 25.964 28.2593 25.964 28.259 25.964C28.2587 25.964 28.2584 25.964 28.2581 25.964C28.2578 25.964 28.2575 25.964 28.2572 25.964C28.2569 25.964 28.2566 25.964 28.2563 25.964C28.256 25.964 28.2557 25.964 28.2554 25.964C28.2551 25.964 28.2548 25.964 28.2545 25.964C28.2542 25.964 28.2539 25.964 28.2536 25.964C28.2533 25.964 28.253 25.964 28.2527 25.964C28.2524 25.964 28.2521 25.964 28.2518 25.964C28.2515 25.964 28.2512 25.964 28.2509 25.964C28.2506 25.964 28.2503 25.964 28.25 25.964C28.2497 25.964 28.2493 25.964 28.249 25.964C28.2487 25.964 28.2484 25.964 28.2481 25.964C28.2478 25.964 28.2475 25.964 28.2472 25.964C28.2469 25.964 28.2466 25.964 28.2463 25.964C28.246 25.964 28.2457 25.964 28.2453 25.964C28.245 25.964 28.2447 25.964 28.2444 25.964C28.2441 25.964 28.2438 25.964 28.2435 25.964C28.2432 25.964 28.2429 25.964 28.2426 25.964C28.2422 25.964 28.2419 25.964 28.2416 25.964C28.2413 25.964 28.241 25.964 28.2407 25.964C28.2404 25.964 28.2401 25.964 28.2397 25.964C28.2394 25.964 28.2391 25.964 28.2388 25.964C28.2385 25.964 28.2382 25.964 28.2379 25.964C28.2375 25.964 28.2372 25.964 28.2369 25.964C28.2366 25.964 28.2363 25.964 28.236 25.964C28.2357 25.964 28.2353 25.964 28.235 25.964C28.2347 25.964 28.2344 25.964 28.2341 25.964C28.2338 25.964 28.2334 25.964 28.2331 25.964C28.2328 25.964 28.2325 25.964 28.2322 25.964C28.2318 25.964 28.2315 25.964 28.2312 25.964C28.2309 25.964 28.2306 25.964 28.2303 25.964C28.2299 25.964 28.2296 25.964 28.2293 25.964C28.229 25.964 28.2287 25.964 28.2283 25.964C28.228 25.964 28.2277 25.964 28.2274 25.964C28.227 25.964 28.2267 25.964 28.2264 25.964C28.2261 25.964 28.2258 25.964 28.2254 25.964C28.2251 25.964 28.2248 25.964 28.2245 25.964C28.2241 25.964 28.2238 25.964 28.2235 25.964C28.2232 25.964 28.2228 25.964 28.2225 25.964C28.2222 25.964 28.2219 25.964 28.2215 25.964C28.2212 25.964 28.2209 25.964 28.2206 25.964C28.2202 25.964 28.2199 25.964 28.2196 25.964C28.2193 25.964 28.2189 25.964 28.2186 25.964C28.2183 25.964 28.218 25.964 28.2176 25.964C28.2173 25.964 28.217 25.964 28.2166 25.964C28.2163 25.964 28.216 25.964 28.2157 25.964C28.2153 25.964 28.215 25.964 28.2147 25.964C28.2143 25.964 28.214 25.964 28.2137 25.964C28.2134 25.964 28.213 25.964 28.2127 25.964C28.2124 25.964 28.212 25.964 28.2117 25.964C28.2114 25.964 28.211 25.964 28.2107 25.964C28.2104 25.964 28.21 25.964 28.2097 25.964C28.2094 25.964 28.209 25.964 28.2087 25.964C28.2084 25.964 28.208 25.964 28.2077 25.964C28.2074 25.964 28.207 25.964 28.2067 25.964C28.2064 25.964 28.206 25.964 28.2057 25.964C28.2054 25.964 28.205 25.964 28.2047 25.964C28.2043 25.964 28.204 25.964 28.2037 25.964C28.2033 25.964 28.203 25.964 28.2027 25.964C28.2023 25.964 28.202 25.964 28.2016 25.964C28.2013 25.964 28.201 25.964 28.2006 25.964C28.2003 25.964 28.2 25.964 28.1996 25.964C28.1993 25.964 28.1989 25.964 28.1986 25.964C28.1983 25.964 28.1979 25.964 28.1976 25.964C28.1972 25.964 28.1969 25.964 28.1966 25.964C28.1962 25.964 28.1959 25.964 28.1955 25.964C28.1952 25.964 28.1948 25.964 28.1945 25.964C28.1942 25.964 28.1938 25.964 28.1935 25.964C28.1931 25.964 28.1928 25.964 28.1924 25.964C28.1921 25.964 28.1918 25.964 28.1914 25.964C28.1911 25.964 28.1907 25.964 28.1904 25.964C28.19 25.964 28.1897 25.964 28.1893 25.964C28.189 25.964 28.1886 25.964 28.1883 25.964C28.188 25.964 28.1876 25.964 28.1873 25.964C28.1869 25.964 28.1866 25.964 28.1862 25.964C28.1859 25.964 28.1855 25.964 28.1852 25.964C28.1848 25.964 28.1845 25.964 28.1841 25.964C28.1838 25.964 28.1834 25.964 28.1831 25.964C28.1827 25.964 28.1824 25.964 28.182 25.964C28.1817 25.964 28.1813 25.964 28.181 25.964C28.1806 25.964 28.1803 25.964 28.1799 25.964C28.1796 25.964 28.1792 25.964 28.1789 25.964C28.1785 25.964 28.1782 25.964 28.1778 25.964C28.1775 25.964 28.1771 25.964 28.1768 25.964C28.1764 25.964 28.176 25.964 28.1757 25.964C28.1753 25.964 28.175 25.964 28.1746 25.964C28.1743 25.964 28.1739 25.964 28.1736 25.964C28.1732 25.964 28.1728 25.964 28.1725 25.964C28.1721 25.964 28.1718 25.964 28.1714 25.964C28.1711 25.964 28.1707 25.964 28.1704 25.964C28.17 25.964 28.1696 25.964 28.1693 25.964C28.1689 25.964 28.1686 25.964 28.1682 25.964C28.1678 25.964 28.1675 25.964 28.1671 25.964C28.1668 25.964 28.1664 25.964 28.166 25.964C28.1657 25.964 28.1653 25.964 28.165 25.964C28.1646 25.964 28.1642 25.964 28.1639 25.964C28.1635 25.964 28.1632 25.964 28.1628 25.964C28.1624 25.964 28.1621 25.964 28.1617 25.964C28.1614 25.964 28.161 25.964 28.1606 25.964C28.1603 25.964 28.1599 25.964 28.1595 25.964C28.1592 25.964 28.1588 25.964 28.1584 25.964C28.1581 25.964 28.1577 25.964 28.1574 25.964C28.157 25.964 28.1566 25.964 28.1563 25.964C28.1559 25.964 28.1555 25.964 28.1552 25.964C28.1548 25.964 28.1544 25.964 28.1541 25.964C28.1537 25.964 28.1533 25.964 28.153 25.964C28.1526 25.964 28.1522 25.964 28.1519 25.964C28.1515 25.964 28.1511 25.964 28.1507 25.964C28.1504 25.964 28.15 25.964 28.1496 25.964C28.1493 25.964 28.1489 25.964 28.1485 25.964C28.1482 25.964 28.1478 25.964 28.1474 25.964C28.147 25.964 28.1467 25.964 28.1463 25.964C28.1459 25.964 28.1456 25.964 28.1452 25.964C28.1448 25.964 28.1444 25.964 28.1441 25.964C28.1437 25.964 28.1433 25.964 28.143 25.964C28.1426 25.964 28.1422 25.964 28.1418 25.964C28.1415 25.964 28.1411 25.964 28.1407 25.964C28.1403 25.964 28.14 25.964 28.1396 25.964C28.1392 25.964 28.1388 25.964 28.1385 25.964C28.1381 25.964 28.1377 25.964 28.1373 25.964C28.137 25.964 28.1366 25.964 28.1362 25.964C28.1358 25.964 28.1354 25.964 28.1351 25.964C28.1347 25.964 28.1343 25.964 28.1339 25.964C28.1336 25.964 28.1332 25.964 28.1328 25.964C28.1324 25.964 28.132 25.964 28.1317 25.964C28.1313 25.964 28.1309 25.964 28.1305 25.964C28.1301 25.964 28.1298 25.964 28.1294 25.964C28.129 25.964 28.1286 25.964 28.1282 25.964C28.1278 25.964 28.1275 25.964 28.1271 25.964C28.1267 25.964 28.1263 25.964 28.1259 25.964C28.1256 25.964 28.1252 25.964 28.1248 25.964C28.1244 25.964 28.124 25.964 28.1236 25.964C28.1232 25.964 28.1229 25.964 28.1225 25.964C28.1221 25.964 28.1217 25.964 28.1213 25.964C28.1209 25.964 28.1206 25.964 28.1202 25.964C28.1198 25.964 28.1194 25.964 28.119 25.964C28.1186 25.964 28.1182 25.964 28.1178 25.964C28.1175 25.964 28.1171 25.964 28.1167 25.964C28.1163 25.964 28.1159 25.964 28.1155 25.964C28.1151 25.964 28.1147 25.964 28.1144 25.964C28.114 25.964 28.1136 25.964 28.1132 25.964C28.1128 25.964 28.1124 25.964 28.112 25.964C28.1116 25.964 28.1112 25.964 28.1108 25.964C28.1104 25.964 28.1101 25.964 28.1097 25.964C28.1093 25.964 28.1089 25.964 28.1085 25.964C28.1081 25.964 28.1077 25.964 28.1073 25.964C28.1069 25.964 28.1065 25.964 28.1061 25.964C28.1057 25.964 28.1053 25.964 28.1049 25.964C28.1045 25.964 28.1042 25.964 28.1038 25.964C28.1034 25.964 28.103 25.964 28.1026 25.964C28.1022 25.964 28.1018 25.964 28.1014 25.964C28.101 25.964 28.1006 25.964 28.1002 25.964C28.0998 25.964 28.0994 25.964 28.099 25.964C28.0986 25.964 28.0982 25.964 28.0978 25.964C28.0974 25.964 28.097 25.964 28.0966 25.964C28.0962 25.964 28.0958 25.964 28.0954 25.964C28.095 25.964 28.0946 25.964 28.0942 25.964C28.0938 25.964 28.0934 25.964 28.093 25.964C28.0926 25.964 28.0922 25.964 28.0918 25.964C28.0914 25.964 28.091 25.964 28.0906 25.964C28.0902 25.964 28.0898 25.964 28.0894 25.964C28.089 25.964 28.0886 25.964 28.0882 25.964C28.0878 25.964 28.0874 25.964 28.087 25.964C28.0866 25.964 28.0862 25.964 28.0858 25.964C28.0854 25.964 28.085 25.964 28.0845 25.964C28.0841 25.964 28.0837 25.964 28.0833 25.964C28.0829 25.964 28.0825 25.964 28.0821 25.964C28.0817 25.964 28.0813 25.964 28.0809 25.964C28.0805 25.964 28.0801 25.964 28.0797 25.964C28.0793 25.964 28.0788 25.964 28.0784 25.964C28.078 25.964 28.0776 25.964 28.0772 25.964C28.0768 25.964 28.0764 25.964 28.076 25.964C28.0756 25.964 28.0752 25.964 28.0748 25.964C28.0743 25.964 28.0739 25.964 28.0735 25.964C28.0731 25.964 28.0727 25.964 28.0723 25.964C28.0719 25.964 28.0715 25.964 28.0711 25.964C28.0706 25.964 28.0702 25.964 28.0698 25.964C28.0694 25.964 28.069 25.964 28.0686 25.964C28.0682 25.964 28.0677 25.964 28.0673 25.964C28.0669 25.964 28.0665 25.964 28.0661 25.964C28.0657 25.964 28.0653 25.964 28.0648 25.964C28.0644 25.964 28.064 25.964 28.0636 25.964C28.0632 25.964 28.0628 25.964 28.0623 25.964C28.0619 25.964 28.0615 25.964 28.0611 25.964C28.0607 25.964 28.0603 25.964 28.0598 25.964C28.0594 25.964 28.059 25.964 28.0586 25.964C28.0582 25.964 28.0577 25.964 28.0573 25.964C28.0569 25.964 28.0565 25.964 28.0561 25.964C28.0556 25.964 28.0552 25.964 28.0548 25.964C28.0544 25.964 28.054 25.964 28.0535 25.964C28.0531 25.964 28.0527 25.964 28.0523 25.964C28.0519 25.964 28.0514 25.964 28.051 25.964C28.0506 25.964 28.0502 25.964 28.0497 25.964C28.0493 25.964 28.0489 25.964 28.0485 25.964C28.048 25.964 28.0476 25.964 28.0472 25.964C28.0468 25.964 28.0463 25.964 28.0459 25.964C28.0455 25.964 28.0451 25.964 28.0446 25.964C28.0442 25.964 28.0438 25.964 28.0434 25.964C28.0429 25.964 28.0425 25.964 28.0421 25.964C28.0417 25.964 28.0412 25.964 28.0408 25.964C28.0404 25.964 28.0399 25.964 28.0395 25.964C28.0391 25.964 28.0387 25.964 28.0382 25.964C28.0378 25.964 28.0374 25.964 28.0369 25.964C28.0365 25.964 28.0361 25.964 28.0357 25.964C28.0352 25.964 28.0348 25.964 28.0344 25.964C28.0339 25.964 28.0335 25.964 28.0331 25.964C28.0326 25.964 28.0322 25.964 28.0318 25.964C28.0313 25.964 28.0309 25.964 28.0305 25.964C28.03 25.964 28.0296 25.964 28.0292 25.964C28.0287 25.964 28.0283 25.964 28.0279 25.964C28.0274 25.964 28.027 25.964 28.0266 25.964C28.0261 25.964 28.0257 25.964 28.0253 25.964C28.0248 25.964 28.0244 25.964 28.024 25.964C28.0235 25.964 28.0231 25.964 28.0226 25.964C28.0222 25.964 28.0218 25.964 28.0213 25.964C28.0209 25.964 28.0205 25.964 28.02 25.964C28.0196 25.964 28.0191 25.964 28.0187 25.964C28.0183 25.964 28.0178 25.964 28.0174 25.964C28.0169 25.964 28.0165 25.964 28.0161 25.964C28.0156 25.964 28.0152 25.964 28.0147 25.964C28.0143 25.964 28.0139 25.964 28.0134 25.964C28.013 25.964 28.0125 25.964 28.0121 25.964C28.0117 25.964 28.0112 25.964 28.0108 25.964C28.0103 25.964 28.0099 25.964 28.0094 25.964C28.009 25.964 28.0086 25.964 28.0081 25.964C28.0077 25.964 28.0072 25.964 28.0068 25.964C28.0063 25.964 28.0059 25.964 28.0054 25.964C28.005 25.964 28.0046 25.964 28.0041 25.964C28.0037 25.964 28.0032 25.964 28.0028 25.964C28.0023 25.964 28.0019 25.964 28.0014 25.964C28.001 25.964 28.0005 25.964 28.0001 25.964C27.9996 25.964 27.9992 25.964 27.9987 25.964C27.9983 25.964 27.9978 25.964 27.9974 25.964C27.997 25.964 27.9965 25.964 27.9961 25.964C27.9956 25.964 27.9952 25.964 27.9947 25.964C27.9943 25.964 27.9938 25.964 27.9934 25.964C27.9929 25.964 27.9924 25.964 27.992 25.964C27.9915 25.964 27.9911 25.964 27.9906 25.964C27.9902 25.964 27.9897 25.964 27.9893 25.964C27.9888 25.964 27.9884 25.964 27.9879 25.964C27.9875 25.964 27.987 25.964 27.9866 25.964C27.9861 25.964 27.9857 25.964 27.9852 25.964C27.9847 25.964 27.9843 25.964 27.9838 25.964C27.9834 25.964 27.9829 25.964 27.9825 25.964C27.982 25.964 27.9816 25.964 27.9811 25.964C27.9806 25.964 27.9802 25.964 27.9797 25.964C27.9793 25.964 27.9788 25.964 27.9784 25.964C27.9779 25.964 27.9774 25.964 27.977 25.964C27.9765 25.964 27.9761 25.964 27.9756 25.964C27.9751 25.964 27.9747 25.964 27.9742 25.964C27.9738 25.964 27.9733 25.964 27.9728 25.964C27.9724 25.964 27.9719 25.964 27.9715 25.964C27.971 25.964 27.9705 25.964 27.9701 25.964C27.9696 25.964 27.9692 25.964 27.9687 25.964C27.9682 25.964 27.9678 25.964 27.9673 25.964C27.9668 25.964 27.9664 25.964 27.9659 25.964C27.9654 25.964 27.965 25.964 27.9645 25.964C27.9641 25.964 27.9636 25.964 27.9631 25.964C27.9627 25.964 27.9622 25.964 27.9617 25.964C27.9613 25.964 27.9608 25.964 27.9603 25.964C27.9599 25.964 27.9594 25.964 27.9589 25.964C27.9585 25.964 27.958 25.964 27.9575 25.964C27.9571 25.964 27.9566 25.964 27.9561 25.964C27.9557 25.964 27.9552 25.964 27.9547 25.964C27.9543 25.964 27.9538 25.964 27.9533 25.964C27.9528 25.964 27.9524 25.964 27.9519 25.964C27.9514 25.964 27.951 25.964 27.9505 25.964C27.95 25.964 27.9496 25.964 27.9491 25.964C27.9486 25.964 27.9481 25.964 27.9477 25.964C27.9472 25.964 27.9467 25.964 27.9462 25.964C27.9458 25.964 27.9453 25.964 27.9448 25.964C27.9444 25.964 27.9439 25.964 27.9434 25.964C27.9429 25.964 27.9425 25.964 27.942 25.964C27.9415 25.964 27.941 25.964 27.9406 25.964C27.9401 25.964 27.9396 25.964 27.9391 25.964C27.9387 25.964 27.9382 25.964 27.9377 25.964C27.9372 25.964 27.9368 25.964 27.9363 25.964C27.9358 25.964 27.9353 25.964 27.9348 25.964C27.9344 25.964 27.9339 25.964 27.9334 25.964C27.9329 25.964 27.9325 25.964 27.932 25.964C27.9315 25.964 27.931 25.964 27.9305 25.964C27.9301 25.964 27.9296 25.964 27.9291 25.964C27.9286 25.964 27.9281 25.964 27.9277 25.964C27.9272 25.964 27.9267 25.964 27.9262 25.964C27.9257 25.964 27.9252 25.964 27.9248 25.964C27.9243 25.964 27.9238 25.964 27.9233 25.964C27.9228 25.964 27.9223 25.964 27.9219 25.964C27.9214 25.964 27.9209 25.964 27.9204 25.964C27.9199 25.964 27.9194 25.964 27.919 25.964C27.9185 25.964 27.918 25.964 27.9175 25.964C27.917 25.964 27.9165 25.964 27.916 25.964C27.9156 25.964 27.9151 25.964 27.9146 25.964C27.9141 25.964 27.9136 25.964 27.9131 25.964C27.9126 25.964 27.9121 25.964 27.9117 25.964C27.9112 25.964 27.9107 25.964 27.9102 25.964C27.9097 25.964 27.9092 25.964 27.9087 25.964C27.9082 25.964 27.9078 25.964 27.9073 25.964C27.9068 25.964 27.9063 25.964 27.9058 25.964C27.9053 25.964 27.9048 25.964 27.9043 25.964C27.9038 25.964 27.9033 25.964 27.9028 25.964C27.9023 25.964 27.9019 25.964 27.9014 25.964C27.9009 25.964 27.9004 25.964 27.8999 25.964C27.8994 25.964 27.8989 25.964 27.8984 25.964C27.8979 25.964 27.8974 25.964 27.8969 25.964C27.8964 25.964 27.8959 25.964 27.8954 25.964C27.8949 25.964 27.8944 25.964 27.894 25.964C27.8935 25.964 27.893 25.964 27.8925 25.964C27.892 25.964 27.8915 25.964 27.891 25.964C27.8905 25.964 27.89 25.964 27.8895 25.964C27.889 25.964 27.8885 25.964 27.888 25.964C27.8875 25.964 27.887 25.964 27.8865 25.964C27.886 25.964 27.8855 25.964 27.885 25.964C27.8845 25.964 27.884 25.964 27.8835 25.964C27.883 25.964 27.8825 25.964 27.882 25.964C27.8815 25.964 27.881 25.964 27.8805 25.964C27.88 25.964 27.8795 25.964 27.879 25.964C27.8785 25.964 27.878 25.964 27.8775 25.964C27.877 25.964 27.8765 25.964 27.876 25.964C27.8755 25.964 27.875 25.964 27.8745 25.964C27.874 25.964 27.8734 25.964 27.8729 25.964C27.8724 25.964 27.8719 25.964 27.8714 25.964C27.8709 25.964 27.8704 25.964 27.8699 25.964C27.8694 25.964 27.8689 25.964 27.8684 25.964C27.8679 25.964 27.8674 25.964 27.8669 25.964C27.8664 25.964 27.8659 25.964 27.8653 25.964C27.8648 25.964 27.8643 25.964 27.8638 25.964C27.8633 25.964 27.8628 25.964 27.8623 25.964C27.8618 25.964 27.8613 25.964 27.8608 25.964C27.8603 25.964 27.8597 25.964 27.8592 25.964C27.8587 25.964 27.8582 25.964 27.8577 25.964C27.8572 25.964 27.8567 25.964 27.8562 25.964C27.8557 25.964 27.8551 25.964 27.8546 25.964C27.8541 25.964 27.8536 25.964 27.8531 25.964C27.8526 25.964 27.8521 25.964 27.8516 25.964C27.851 25.964 27.8505 25.964 27.85 25.964C27.8495 25.964 27.849 25.964 27.8485 25.964C27.848 25.964 27.8474 25.964 27.8469 25.964V27.964C27.8474 27.964 27.848 27.964 27.8485 27.964C27.849 27.964 27.8495 27.964 27.85 27.964C27.8505 27.964 27.851 27.964 27.8516 27.964C27.8521 27.964 27.8526 27.964 27.8531 27.964C27.8536 27.964 27.8541 27.964 27.8546 27.964C27.8551 27.964 27.8557 27.964 27.8562 27.964C27.8567 27.964 27.8572 27.964 27.8577 27.964C27.8582 27.964 27.8587 27.964 27.8592 27.964C27.8597 27.964 27.8603 27.964 27.8608 27.964C27.8613 27.964 27.8618 27.964 27.8623 27.964C27.8628 27.964 27.8633 27.964 27.8638 27.964C27.8643 27.964 27.8648 27.964 27.8653 27.964C27.8659 27.964 27.8664 27.964 27.8669 27.964C27.8674 27.964 27.8679 27.964 27.8684 27.964C27.8689 27.964 27.8694 27.964 27.8699 27.964C27.8704 27.964 27.8709 27.964 27.8714 27.964C27.8719 27.964 27.8724 27.964 27.8729 27.964C27.8734 27.964 27.874 27.964 27.8745 27.964C27.875 27.964 27.8755 27.964 27.876 27.964C27.8765 27.964 27.877 27.964 27.8775 27.964C27.878 27.964 27.8785 27.964 27.879 27.964C27.8795 27.964 27.88 27.964 27.8805 27.964C27.881 27.964 27.8815 27.964 27.882 27.964C27.8825 27.964 27.883 27.964 27.8835 27.964C27.884 27.964 27.8845 27.964 27.885 27.964C27.8855 27.964 27.886 27.964 27.8865 27.964C27.887 27.964 27.8875 27.964 27.888 27.964C27.8885 27.964 27.889 27.964 27.8895 27.964C27.89 27.964 27.8905 27.964 27.891 27.964C27.8915 27.964 27.892 27.964 27.8925 27.964C27.893 27.964 27.8935 27.964 27.894 27.964C27.8944 27.964 27.8949 27.964 27.8954 27.964C27.8959 27.964 27.8964 27.964 27.8969 27.964C27.8974 27.964 27.8979 27.964 27.8984 27.964C27.8989 27.964 27.8994 27.964 27.8999 27.964C27.9004 27.964 27.9009 27.964 27.9014 27.964C27.9019 27.964 27.9023 27.964 27.9028 27.964C27.9033 27.964 27.9038 27.964 27.9043 27.964C27.9048 27.964 27.9053 27.964 27.9058 27.964C27.9063 27.964 27.9068 27.964 27.9073 27.964C27.9078 27.964 27.9082 27.964 27.9087 27.964C27.9092 27.964 27.9097 27.964 27.9102 27.964C27.9107 27.964 27.9112 27.964 27.9117 27.964C27.9121 27.964 27.9126 27.964 27.9131 27.964C27.9136 27.964 27.9141 27.964 27.9146 27.964C27.9151 27.964 27.9156 27.964 27.916 27.964C27.9165 27.964 27.917 27.964 27.9175 27.964C27.918 27.964 27.9185 27.964 27.919 27.964C27.9194 27.964 27.9199 27.964 27.9204 27.964C27.9209 27.964 27.9214 27.964 27.9219 27.964C27.9223 27.964 27.9228 27.964 27.9233 27.964C27.9238 27.964 27.9243 27.964 27.9248 27.964C27.9252 27.964 27.9257 27.964 27.9262 27.964C27.9267 27.964 27.9272 27.964 27.9277 27.964C27.9281 27.964 27.9286 27.964 27.9291 27.964C27.9296 27.964 27.9301 27.964 27.9305 27.964C27.931 27.964 27.9315 27.964 27.932 27.964C27.9325 27.964 27.9329 27.964 27.9334 27.964C27.9339 27.964 27.9344 27.964 27.9348 27.964C27.9353 27.964 27.9358 27.964 27.9363 27.964C27.9368 27.964 27.9372 27.964 27.9377 27.964C27.9382 27.964 27.9387 27.964 27.9391 27.964C27.9396 27.964 27.9401 27.964 27.9406 27.964C27.941 27.964 27.9415 27.964 27.942 27.964C27.9425 27.964 27.9429 27.964 27.9434 27.964C27.9439 27.964 27.9444 27.964 27.9448 27.964C27.9453 27.964 27.9458 27.964 27.9462 27.964C27.9467 27.964 27.9472 27.964 27.9477 27.964C27.9481 27.964 27.9486 27.964 27.9491 27.964C27.9496 27.964 27.95 27.964 27.9505 27.964C27.951 27.964 27.9514 27.964 27.9519 27.964C27.9524 27.964 27.9528 27.964 27.9533 27.964C27.9538 27.964 27.9543 27.964 27.9547 27.964C27.9552 27.964 27.9557 27.964 27.9561 27.964C27.9566 27.964 27.9571 27.964 27.9575 27.964C27.958 27.964 27.9585 27.964 27.9589 27.964C27.9594 27.964 27.9599 27.964 27.9603 27.964C27.9608 27.964 27.9613 27.964 27.9617 27.964C27.9622 27.964 27.9627 27.964 27.9631 27.964C27.9636 27.964 27.9641 27.964 27.9645 27.964C27.965 27.964 27.9654 27.964 27.9659 27.964C27.9664 27.964 27.9668 27.964 27.9673 27.964C27.9678 27.964 27.9682 27.964 27.9687 27.964C27.9692 27.964 27.9696 27.964 27.9701 27.964C27.9705 27.964 27.971 27.964 27.9715 27.964C27.9719 27.964 27.9724 27.964 27.9728 27.964C27.9733 27.964 27.9738 27.964 27.9742 27.964C27.9747 27.964 27.9751 27.964 27.9756 27.964C27.9761 27.964 27.9765 27.964 27.977 27.964C27.9774 27.964 27.9779 27.964 27.9784 27.964C27.9788 27.964 27.9793 27.964 27.9797 27.964C27.9802 27.964 27.9806 27.964 27.9811 27.964C27.9816 27.964 27.982 27.964 27.9825 27.964C27.9829 27.964 27.9834 27.964 27.9838 27.964C27.9843 27.964 27.9847 27.964 27.9852 27.964C27.9857 27.964 27.9861 27.964 27.9866 27.964C27.987 27.964 27.9875 27.964 27.9879 27.964C27.9884 27.964 27.9888 27.964 27.9893 27.964C27.9897 27.964 27.9902 27.964 27.9906 27.964C27.9911 27.964 27.9915 27.964 27.992 27.964C27.9924 27.964 27.9929 27.964 27.9934 27.964C27.9938 27.964 27.9943 27.964 27.9947 27.964C27.9952 27.964 27.9956 27.964 27.9961 27.964C27.9965 27.964 27.997 27.964 27.9974 27.964C27.9978 27.964 27.9983 27.964 27.9987 27.964C27.9992 27.964 27.9996 27.964 28.0001 27.964C28.0005 27.964 28.001 27.964 28.0014 27.964C28.0019 27.964 28.0023 27.964 28.0028 27.964C28.0032 27.964 28.0037 27.964 28.0041 27.964C28.0046 27.964 28.005 27.964 28.0054 27.964C28.0059 27.964 28.0063 27.964 28.0068 27.964C28.0072 27.964 28.0077 27.964 28.0081 27.964C28.0086 27.964 28.009 27.964 28.0094 27.964C28.0099 27.964 28.0103 27.964 28.0108 27.964C28.0112 27.964 28.0117 27.964 28.0121 27.964C28.0125 27.964 28.013 27.964 28.0134 27.964C28.0139 27.964 28.0143 27.964 28.0147 27.964C28.0152 27.964 28.0156 27.964 28.0161 27.964C28.0165 27.964 28.0169 27.964 28.0174 27.964C28.0178 27.964 28.0183 27.964 28.0187 27.964C28.0191 27.964 28.0196 27.964 28.02 27.964C28.0205 27.964 28.0209 27.964 28.0213 27.964C28.0218 27.964 28.0222 27.964 28.0226 27.964C28.0231 27.964 28.0235 27.964 28.024 27.964C28.0244 27.964 28.0248 27.964 28.0253 27.964C28.0257 27.964 28.0261 27.964 28.0266 27.964C28.027 27.964 28.0274 27.964 28.0279 27.964C28.0283 27.964 28.0287 27.964 28.0292 27.964C28.0296 27.964 28.03 27.964 28.0305 27.964C28.0309 27.964 28.0313 27.964 28.0318 27.964C28.0322 27.964 28.0326 27.964 28.0331 27.964C28.0335 27.964 28.0339 27.964 28.0344 27.964C28.0348 27.964 28.0352 27.964 28.0357 27.964C28.0361 27.964 28.0365 27.964 28.0369 27.964C28.0374 27.964 28.0378 27.964 28.0382 27.964C28.0387 27.964 28.0391 27.964 28.0395 27.964C28.0399 27.964 28.0404 27.964 28.0408 27.964C28.0412 27.964 28.0417 27.964 28.0421 27.964C28.0425 27.964 28.0429 27.964 28.0434 27.964C28.0438 27.964 28.0442 27.964 28.0446 27.964C28.0451 27.964 28.0455 27.964 28.0459 27.964C28.0463 27.964 28.0468 27.964 28.0472 27.964C28.0476 27.964 28.048 27.964 28.0485 27.964C28.0489 27.964 28.0493 27.964 28.0497 27.964C28.0502 27.964 28.0506 27.964 28.051 27.964C28.0514 27.964 28.0519 27.964 28.0523 27.964C28.0527 27.964 28.0531 27.964 28.0535 27.964C28.054 27.964 28.0544 27.964 28.0548 27.964C28.0552 27.964 28.0556 27.964 28.0561 27.964C28.0565 27.964 28.0569 27.964 28.0573 27.964C28.0577 27.964 28.0582 27.964 28.0586 27.964C28.059 27.964 28.0594 27.964 28.0598 27.964C28.0603 27.964 28.0607 27.964 28.0611 27.964C28.0615 27.964 28.0619 27.964 28.0623 27.964C28.0628 27.964 28.0632 27.964 28.0636 27.964C28.064 27.964 28.0644 27.964 28.0648 27.964C28.0653 27.964 28.0657 27.964 28.0661 27.964C28.0665 27.964 28.0669 27.964 28.0673 27.964C28.0677 27.964 28.0682 27.964 28.0686 27.964C28.069 27.964 28.0694 27.964 28.0698 27.964C28.0702 27.964 28.0706 27.964 28.0711 27.964C28.0715 27.964 28.0719 27.964 28.0723 27.964C28.0727 27.964 28.0731 27.964 28.0735 27.964C28.0739 27.964 28.0743 27.964 28.0748 27.964C28.0752 27.964 28.0756 27.964 28.076 27.964C28.0764 27.964 28.0768 27.964 28.0772 27.964C28.0776 27.964 28.078 27.964 28.0784 27.964C28.0788 27.964 28.0793 27.964 28.0797 27.964C28.0801 27.964 28.0805 27.964 28.0809 27.964C28.0813 27.964 28.0817 27.964 28.0821 27.964C28.0825 27.964 28.0829 27.964 28.0833 27.964C28.0837 27.964 28.0841 27.964 28.0845 27.964C28.085 27.964 28.0854 27.964 28.0858 27.964C28.0862 27.964 28.0866 27.964 28.087 27.964C28.0874 27.964 28.0878 27.964 28.0882 27.964C28.0886 27.964 28.089 27.964 28.0894 27.964C28.0898 27.964 28.0902 27.964 28.0906 27.964C28.091 27.964 28.0914 27.964 28.0918 27.964C28.0922 27.964 28.0926 27.964 28.093 27.964C28.0934 27.964 28.0938 27.964 28.0942 27.964C28.0946 27.964 28.095 27.964 28.0954 27.964C28.0958 27.964 28.0962 27.964 28.0966 27.964C28.097 27.964 28.0974 27.964 28.0978 27.964C28.0982 27.964 28.0986 27.964 28.099 27.964C28.0994 27.964 28.0998 27.964 28.1002 27.964C28.1006 27.964 28.101 27.964 28.1014 27.964C28.1018 27.964 28.1022 27.964 28.1026 27.964C28.103 27.964 28.1034 27.964 28.1038 27.964C28.1042 27.964 28.1045 27.964 28.1049 27.964C28.1053 27.964 28.1057 27.964 28.1061 27.964C28.1065 27.964 28.1069 27.964 28.1073 27.964C28.1077 27.964 28.1081 27.964 28.1085 27.964C28.1089 27.964 28.1093 27.964 28.1097 27.964C28.1101 27.964 28.1104 27.964 28.1108 27.964C28.1112 27.964 28.1116 27.964 28.112 27.964C28.1124 27.964 28.1128 27.964 28.1132 27.964C28.1136 27.964 28.114 27.964 28.1144 27.964C28.1147 27.964 28.1151 27.964 28.1155 27.964C28.1159 27.964 28.1163 27.964 28.1167 27.964C28.1171 27.964 28.1175 27.964 28.1178 27.964C28.1182 27.964 28.1186 27.964 28.119 27.964C28.1194 27.964 28.1198 27.964 28.1202 27.964C28.1206 27.964 28.1209 27.964 28.1213 27.964C28.1217 27.964 28.1221 27.964 28.1225 27.964C28.1229 27.964 28.1232 27.964 28.1236 27.964C28.124 27.964 28.1244 27.964 28.1248 27.964C28.1252 27.964 28.1256 27.964 28.1259 27.964C28.1263 27.964 28.1267 27.964 28.1271 27.964C28.1275 27.964 28.1278 27.964 28.1282 27.964C28.1286 27.964 28.129 27.964 28.1294 27.964C28.1298 27.964 28.1301 27.964 28.1305 27.964C28.1309 27.964 28.1313 27.964 28.1317 27.964C28.132 27.964 28.1324 27.964 28.1328 27.964C28.1332 27.964 28.1336 27.964 28.1339 27.964C28.1343 27.964 28.1347 27.964 28.1351 27.964C28.1354 27.964 28.1358 27.964 28.1362 27.964C28.1366 27.964 28.137 27.964 28.1373 27.964C28.1377 27.964 28.1381 27.964 28.1385 27.964C28.1388 27.964 28.1392 27.964 28.1396 27.964C28.14 27.964 28.1403 27.964 28.1407 27.964C28.1411 27.964 28.1415 27.964 28.1418 27.964C28.1422 27.964 28.1426 27.964 28.143 27.964C28.1433 27.964 28.1437 27.964 28.1441 27.964C28.1444 27.964 28.1448 27.964 28.1452 27.964C28.1456 27.964 28.1459 27.964 28.1463 27.964C28.1467 27.964 28.147 27.964 28.1474 27.964C28.1478 27.964 28.1482 27.964 28.1485 27.964C28.1489 27.964 28.1493 27.964 28.1496 27.964C28.15 27.964 28.1504 27.964 28.1507 27.964C28.1511 27.964 28.1515 27.964 28.1519 27.964C28.1522 27.964 28.1526 27.964 28.153 27.964C28.1533 27.964 28.1537 27.964 28.1541 27.964C28.1544 27.964 28.1548 27.964 28.1552 27.964C28.1555 27.964 28.1559 27.964 28.1563 27.964C28.1566 27.964 28.157 27.964 28.1574 27.964C28.1577 27.964 28.1581 27.964 28.1584 27.964C28.1588 27.964 28.1592 27.964 28.1595 27.964C28.1599 27.964 28.1603 27.964 28.1606 27.964C28.161 27.964 28.1614 27.964 28.1617 27.964C28.1621 27.964 28.1624 27.964 28.1628 27.964C28.1632 27.964 28.1635 27.964 28.1639 27.964C28.1642 27.964 28.1646 27.964 28.165 27.964C28.1653 27.964 28.1657 27.964 28.166 27.964C28.1664 27.964 28.1668 27.964 28.1671 27.964C28.1675 27.964 28.1678 27.964 28.1682 27.964C28.1686 27.964 28.1689 27.964 28.1693 27.964C28.1696 27.964 28.17 27.964 28.1704 27.964C28.1707 27.964 28.1711 27.964 28.1714 27.964C28.1718 27.964 28.1721 27.964 28.1725 27.964C28.1728 27.964 28.1732 27.964 28.1736 27.964C28.1739 27.964 28.1743 27.964 28.1746 27.964C28.175 27.964 28.1753 27.964 28.1757 27.964C28.176 27.964 28.1764 27.964 28.1768 27.964C28.1771 27.964 28.1775 27.964 28.1778 27.964C28.1782 27.964 28.1785 27.964 28.1789 27.964C28.1792 27.964 28.1796 27.964 28.1799 27.964C28.1803 27.964 28.1806 27.964 28.181 27.964C28.1813 27.964 28.1817 27.964 28.182 27.964C28.1824 27.964 28.1827 27.964 28.1831 27.964C28.1834 27.964 28.1838 27.964 28.1841 27.964C28.1845 27.964 28.1848 27.964 28.1852 27.964C28.1855 27.964 28.1859 27.964 28.1862 27.964C28.1866 27.964 28.1869 27.964 28.1873 27.964C28.1876 27.964 28.188 27.964 28.1883 27.964C28.1886 27.964 28.189 27.964 28.1893 27.964C28.1897 27.964 28.19 27.964 28.1904 27.964C28.1907 27.964 28.1911 27.964 28.1914 27.964C28.1918 27.964 28.1921 27.964 28.1924 27.964C28.1928 27.964 28.1931 27.964 28.1935 27.964C28.1938 27.964 28.1942 27.964 28.1945 27.964C28.1948 27.964 28.1952 27.964 28.1955 27.964C28.1959 27.964 28.1962 27.964 28.1966 27.964C28.1969 27.964 28.1972 27.964 28.1976 27.964C28.1979 27.964 28.1983 27.964 28.1986 27.964C28.1989 27.964 28.1993 27.964 28.1996 27.964C28.2 27.964 28.2003 27.964 28.2006 27.964C28.201 27.964 28.2013 27.964 28.2016 27.964C28.202 27.964 28.2023 27.964 28.2027 27.964C28.203 27.964 28.2033 27.964 28.2037 27.964C28.204 27.964 28.2043 27.964 28.2047 27.964C28.205 27.964 28.2054 27.964 28.2057 27.964C28.206 27.964 28.2064 27.964 28.2067 27.964C28.207 27.964 28.2074 27.964 28.2077 27.964C28.208 27.964 28.2084 27.964 28.2087 27.964C28.209 27.964 28.2094 27.964 28.2097 27.964C28.21 27.964 28.2104 27.964 28.2107 27.964C28.211 27.964 28.2114 27.964 28.2117 27.964C28.212 27.964 28.2124 27.964 28.2127 27.964C28.213 27.964 28.2134 27.964 28.2137 27.964C28.214 27.964 28.2143 27.964 28.2147 27.964C28.215 27.964 28.2153 27.964 28.2157 27.964C28.216 27.964 28.2163 27.964 28.2166 27.964C28.217 27.964 28.2173 27.964 28.2176 27.964C28.218 27.964 28.2183 27.964 28.2186 27.964C28.2189 27.964 28.2193 27.964 28.2196 27.964C28.2199 27.964 28.2202 27.964 28.2206 27.964C28.2209 27.964 28.2212 27.964 28.2215 27.964C28.2219 27.964 28.2222 27.964 28.2225 27.964C28.2228 27.964 28.2232 27.964 28.2235 27.964C28.2238 27.964 28.2241 27.964 28.2245 27.964C28.2248 27.964 28.2251 27.964 28.2254 27.964C28.2258 27.964 28.2261 27.964 28.2264 27.964C28.2267 27.964 28.227 27.964 28.2274 27.964C28.2277 27.964 28.228 27.964 28.2283 27.964C28.2287 27.964 28.229 27.964 28.2293 27.964C28.2296 27.964 28.2299 27.964 28.2303 27.964C28.2306 27.964 28.2309 27.964 28.2312 27.964C28.2315 27.964 28.2318 27.964 28.2322 27.964C28.2325 27.964 28.2328 27.964 28.2331 27.964C28.2334 27.964 28.2338 27.964 28.2341 27.964C28.2344 27.964 28.2347 27.964 28.235 27.964C28.2353 27.964 28.2357 27.964 28.236 27.964C28.2363 27.964 28.2366 27.964 28.2369 27.964C28.2372 27.964 28.2375 27.964 28.2379 27.964C28.2382 27.964 28.2385 27.964 28.2388 27.964C28.2391 27.964 28.2394 27.964 28.2397 27.964C28.2401 27.964 28.2404 27.964 28.2407 27.964C28.241 27.964 28.2413 27.964 28.2416 27.964C28.2419 27.964 28.2422 27.964 28.2426 27.964C28.2429 27.964 28.2432 27.964 28.2435 27.964C28.2438 27.964 28.2441 27.964 28.2444 27.964C28.2447 27.964 28.245 27.964 28.2453 27.964C28.2457 27.964 28.246 27.964 28.2463 27.964C28.2466 27.964 28.2469 27.964 28.2472 27.964C28.2475 27.964 28.2478 27.964 28.2481 27.964C28.2484 27.964 28.2487 27.964 28.249 27.964C28.2493 27.964 28.2497 27.964 28.25 27.964C28.2503 27.964 28.2506 27.964 28.2509 27.964C28.2512 27.964 28.2515 27.964 28.2518 27.964C28.2521 27.964 28.2524 27.964 28.2527 27.964C28.253 27.964 28.2533 27.964 28.2536 27.964C28.2539 27.964 28.2542 27.964 28.2545 27.964C28.2548 27.964 28.2551 27.964 28.2554 27.964C28.2557 27.964 28.256 27.964 28.2563 27.964C28.2566 27.964 28.2569 27.964 28.2572 27.964C28.2575 27.964 28.2578 27.964 28.2581 27.964C28.2584 27.964 28.2587 27.964 28.259 27.964C28.2593 27.964 28.2596 27.964 28.2599 27.964C28.2602 27.964 28.2605 27.964 28.2608 27.964C28.2611 27.964 28.2614 27.964 28.2617 27.964C28.262 27.964 28.2623 27.964 28.2626 27.964C28.2629 27.964 28.2632 27.964 28.2635 27.964C28.2638 27.964 28.2641 27.964 28.2644 27.964C28.2647 27.964 28.265 27.964 28.2653 27.964C28.2656 27.964 28.2659 27.964 28.2662 27.964C28.2665 27.964 28.2668 27.964 28.2671 27.964C28.2674 27.964 28.2676 27.964 28.2679 27.964C28.2682 27.964 28.2685 27.964 28.2688 27.964C28.2691 27.964 28.2694 27.964 28.2697 27.964C28.27 27.964 28.2703 27.964 28.2706 27.964C28.2709 27.964 28.2712 27.964 28.2714 27.964C28.2717 27.964 28.272 27.964 28.2723 27.964C28.2726 27.964 28.2729 27.964 28.2732 27.964C28.2735 27.964 28.2738 27.964 28.274 27.964C28.2743 27.964 28.2746 27.964 28.2749 27.964C28.2752 27.964 28.2755 27.964 28.2758 27.964C28.2761 27.964 28.2764 27.964 28.2766 27.964C28.2769 27.964 28.2772 27.964 28.2775 27.964C28.2778 27.964 28.2781 27.964 28.2784 27.964C28.2786 27.964 28.2789 27.964 28.2792 27.964C28.2795 27.964 28.2798 27.964 28.2801 27.964C28.2804 27.964 28.2806 27.964 28.2809 27.964C28.2812 27.964 28.2815 27.964 28.2818 27.964C28.2821 27.964 28.2823 27.964 28.2826 27.964C28.2829 27.964 28.2832 27.964 28.2835 27.964C28.2837 27.964 28.284 27.964 28.2843 27.964C28.2846 27.964 28.2849 27.964 28.2851 27.964C28.2854 27.964 28.2857 27.964 28.286 27.964C28.2863 27.964 28.2865 27.964 28.2868 27.964C28.2871 27.964 28.2874 27.964 28.2877 27.964C28.2879 27.964 28.2882 27.964 28.2885 27.964C28.2888 27.964 28.2891 27.964 28.2893 27.964C28.2896 27.964 28.2899 27.964 28.2902 27.964C28.2904 27.964 28.2907 27.964 28.291 27.964C28.2913 27.964 28.2915 27.964 28.2918 27.964C28.2921 27.964 28.2924 27.964 28.2926 27.964C28.2929 27.964 28.2932 27.964 28.2935 27.964C28.2937 27.964 28.294 27.964 28.2943 27.964C28.2946 27.964 28.2948 27.964 28.2951 27.964C28.2954 27.964 28.2957 27.964 28.2959 27.964C28.2962 27.964 28.2965 27.964 28.2967 27.964C28.297 27.964 28.2973 27.964 28.2976 27.964C28.2978 27.964 28.2981 27.964 28.2984 27.964C28.2986 27.964 28.2989 27.964 28.2992 27.964C28.2994 27.964 28.2997 27.964 28.3 27.964C28.3002 27.964 28.3005 27.964 28.3008 27.964C28.3011 27.964 28.3013 27.964 28.3016 27.964C28.3019 27.964 28.3021 27.964 28.3024 27.964C28.3027 27.964 28.3029 27.964 28.3032 27.964C28.3035 27.964 28.3037 27.964 28.304 27.964C28.3043 27.964 28.3045 27.964 28.3048 27.964C28.3051 27.964 28.3053 27.964 28.3056 27.964C28.3058 27.964 28.3061 27.964 28.3064 27.964C28.3066 27.964 28.3069 27.964 28.3072 27.964C28.3074 27.964 28.3077 27.964 28.308 27.964C28.3082 27.964 28.3085 27.964 28.3087 27.964C28.309 27.964 28.3093 27.964 28.3095 27.964C28.3098 27.964 28.31 27.964 28.3103 27.964C28.3106 27.964 28.3108 27.964 28.3111 27.964C28.3113 27.964 28.3116 27.964 28.3119 27.964C28.3121 27.964 28.3124 27.964 28.3126 27.964C28.3129 27.964 28.3132 27.964 28.3134 27.964C28.3137 27.964 28.3139 27.964 28.3142 27.964C28.3144 27.964 28.3147 27.964 28.315 27.964C28.3152 27.964 28.3155 27.964 28.3157 27.964C28.316 27.964 28.3162 27.964 28.3165 27.964C28.3168 27.964 28.317 27.964 28.3173 27.964C28.3175 27.964 28.3178 27.964 28.318 27.964C28.3183 27.964 28.3185 27.964 28.3188 27.964C28.319 27.964 28.3193 27.964 28.3195 27.964C28.3198 27.964 28.3201 27.964 28.3203 27.964C28.3206 27.964 28.3208 27.964 28.3211 27.964C28.3213 27.964 28.3216 27.964 28.3218 27.964C28.3221 27.964 28.3223 27.964 28.3226 27.964C28.3228 27.964 28.3231 27.964 28.3233 27.964C28.3236 27.964 28.3238 27.964 28.3241 27.964C28.3243 27.964 28.3246 27.964 28.3248 27.964C28.3251 27.964 28.3253 27.964 28.3256 27.964C28.3258 27.964 28.326 27.964 28.3263 27.964C28.3265 27.964 28.3268 27.964 28.327 27.964C28.3273 27.964 28.3275 27.964 28.3278 27.964C28.328 27.964 28.3283 27.964 28.3285 27.964C28.3288 27.964 28.329 27.964 28.3292 27.964C28.3295 27.964 28.3297 27.964 28.33 27.964C28.3302 27.964 28.3305 27.964 28.3307 27.964C28.331 27.964 28.3312 27.964 28.3314 27.964C28.3317 27.964 28.3319 27.964 28.3322 27.964C28.3324 27.964 28.3326 27.964 28.3329 27.964C28.3331 27.964 28.3334 27.964 28.3336 27.964C28.3339 27.964 28.3341 27.964 28.3343 27.964C28.3346 27.964 28.3348 27.964 28.3351 27.964C28.3353 27.964 28.3355 27.964 28.3358 27.964C28.336 27.964 28.3362 27.964 28.3365 27.964C28.3367 27.964 28.337 27.964 28.3372 27.964C28.3374 27.964 28.3377 27.964 28.3379 27.964C28.3381 27.964 28.3384 27.964 28.3386 27.964C28.3389 27.964 28.3391 27.964 28.3393 27.964C28.3396 27.964 28.3398 27.964 28.34 27.964C28.3403 27.964 28.3405 27.964 28.3407 27.964C28.341 27.964 28.3412 27.964 28.3414 27.964C28.3417 27.964 28.3419 27.964 28.3421 27.964C28.3424 27.964 28.3426 27.964 28.3428 27.964C28.3431 27.964 28.3433 27.964 28.3435 27.964C28.3438 27.964 28.344 27.964 28.3442 27.964C28.3445 27.964 28.3447 27.964 28.3449 27.964C28.3452 27.964 28.3454 27.964 28.3456 27.964C28.3458 27.964 28.3461 27.964 28.3463 27.964C28.3465 27.964 28.3468 27.964 28.347 27.964C28.3472 27.964 28.3474 27.964 28.3477 27.964C28.3479 27.964 28.3481 27.964 28.3484 27.964C28.3486 27.964 28.3488 27.964 28.349 27.964C28.3493 27.964 28.3495 27.964 28.3497 27.964C28.3499 27.964 28.3502 27.964 28.3504 27.964C28.3506 27.964 28.3508 27.964 28.3511 27.964C28.3513 27.964 28.3515 27.964 28.3517 27.964C28.352 27.964 28.3522 27.964 28.3524 27.964C28.3526 27.964 28.3529 27.964 28.3531 27.964C28.3533 27.964 28.3535 27.964 28.3537 27.964C28.354 27.964 28.3542 27.964 28.3544 27.964C28.3546 27.964 28.3549 27.964 28.3551 27.964C28.3553 27.964 28.3555 27.964 28.3557 27.964C28.356 27.964 28.3562 27.964 28.3564 27.964C28.3566 27.964 28.3568 27.964 28.3571 27.964C28.3573 27.964 28.3575 27.964 28.3577 27.964C28.3579 27.964 28.3581 27.964 28.3584 27.964C28.3586 27.964 28.3588 27.964 28.359 27.964C28.3592 27.964 28.3594 27.964 28.3597 27.964C28.3599 27.964 28.3601 27.964 28.3603 27.964C28.3605 27.964 28.3607 27.964 28.361 27.964C28.3612 27.964 28.3614 27.964 28.3616 27.964C28.3618 27.964 28.362 27.964 28.3622 27.964C28.3625 27.964 28.3627 27.964 28.3629 27.964C28.3631 27.964 28.3633 27.964 28.3635 27.964C28.3637 27.964 28.3639 27.964 28.3642 27.964C28.3644 27.964 28.3646 27.964 28.3648 27.964C28.365 27.964 28.3652 27.964 28.3654 27.964C28.3656 27.964 28.3658 27.964 28.3661 27.964C28.3663 27.964 28.3665 27.964 28.3667 27.964C28.3669 27.964 28.3671 27.964 28.3673 27.964C28.3675 27.964 28.3677 27.964 28.3679 27.964C28.3681 27.964 28.3684 27.964 28.3686 27.964C28.3688 27.964 28.369 27.964 28.3692 27.964C28.3694 27.964 28.3696 27.964 28.3698 27.964C28.37 27.964 28.3702 27.964 28.3704 27.964C28.3706 27.964 28.3708 27.964 28.371 27.964C28.3712 27.964 28.3714 27.964 28.3716 27.964C28.3719 27.964 28.3721 27.964 28.3723 27.964C28.3725 27.964 28.3727 27.964 28.3729 27.964C28.3731 27.964 28.3733 27.964 28.3735 27.964C28.3737 27.964 28.3739 27.964 28.3741 27.964C28.3743 27.964 28.3745 27.964 28.3747 27.964C28.3749 27.964 28.3751 27.964 28.3753 27.964C28.3755 27.964 28.3757 27.964 28.3759 27.964C28.3761 27.964 28.3763 27.964 28.3765 27.964C28.3767 27.964 28.3769 27.964 28.3771 27.964C28.3773 27.964 28.3775 27.964 28.3777 27.964C28.3779 27.964 28.3781 27.964 28.3783 27.964C28.3785 27.964 28.3787 27.964 28.3789 27.964C28.3791 27.964 28.3793 27.964 28.3794 27.964C28.3796 27.964 28.3798 27.964 28.38 27.964C28.3802 27.964 28.3804 27.964 28.3806 27.964C28.3808 27.964 28.381 27.964 28.3812 27.964C28.3814 27.964 28.3816 27.964 28.3818 27.964C28.382 27.964 28.3822 27.964 28.3824 27.964C28.3826 27.964 28.3827 27.964 28.3829 27.964C28.3831 27.964 28.3833 27.964 28.3835 27.964C28.3837 27.964 28.3839 27.964 28.3841 27.964C28.3843 27.964 28.3845 27.964 28.3847 27.964C28.3848 27.964 28.385 27.964 28.3852 27.964C28.3854 27.964 28.3856 27.964 28.3858 27.964C28.386 27.964 28.3862 27.964 28.3864 27.964C28.3865 27.964 28.3867 27.964 28.3869 27.964V25.964ZM27.8745 25.9644C24.3808 25.868 21.5067 25.8794 19.2607 26.0015L19.3692 27.9985C21.5391 27.8806 24.3531 27.868 27.8193 27.9636L27.8745 25.9644ZM19.3149 26H18.8829V28H19.3149V26ZM19.59 26.2929L19.482 26.1849L18.0678 27.5991L18.1758 27.7071L19.59 26.2929ZM19.482 26.1849C19.495 26.1979 19.6309 26.3412 19.6309 26.604H17.6309C17.6309 27.0588 17.8628 27.3941 18.0678 27.5991L19.482 26.1849ZM19.6309 26.604C19.6309 26.4128 19.695 26.0886 19.908 25.5987L18.0739 24.8013C17.8068 25.4154 17.6309 26.0272 17.6309 26.604H19.6309ZM19.9396 25.5162C19.8403 25.8142 19.6287 25.9471 19.562 25.9834C19.49 26.0227 19.4513 26.0254 19.4905 26.0173C19.5644 26.002 19.7332 25.984 20.0349 25.984V23.984C19.6887 23.984 19.3594 24.002 19.0853 24.0587C18.9505 24.0866 18.7753 24.1343 18.6043 24.2276C18.4387 24.3179 18.1656 24.5138 18.0422 24.8838L19.9396 25.5162ZM20.118 25.9805C20.701 25.932 21.0435 25.912 21.1869 25.912V23.912C20.9464 23.912 20.5208 23.94 19.9519 23.9875L20.118 25.9805ZM21.3583 25.8972C21.6505 25.8464 21.9159 25.7892 22.1307 25.7204C22.2361 25.6867 22.3635 25.6396 22.4868 25.5716C22.5777 25.5214 22.8296 25.3746 22.9814 25.0712L21.1925 24.1768C21.2628 24.0362 21.3515 23.9482 21.403 23.9036C21.4566 23.8573 21.5012 23.8311 21.5206 23.8204C21.5569 23.8004 21.5657 23.8013 21.5211 23.8156C21.4359 23.8428 21.2754 23.8816 21.0156 23.9268L21.3583 25.8972ZM22.794 25.3311C22.9971 25.1281 23.0505 24.8947 23.0542 24.8809C23.0721 24.8146 23.0797 24.76 23.0829 24.7345C23.0897 24.6796 23.0915 24.6317 23.0922 24.6068C23.0937 24.5508 23.0927 24.4891 23.091 24.4326C23.0875 24.3146 23.0793 24.1522 23.0671 23.9515C23.0426 23.5471 23.0001 22.9526 22.94 22.1713L20.9459 22.3247C21.0058 23.1034 21.0473 23.6849 21.0708 24.0725C21.0826 24.2678 21.0893 24.4054 21.0919 24.4914C21.0932 24.5369 21.0929 24.5532 21.0929 24.5512C21.093 24.5495 21.0932 24.5436 21.0937 24.5346C21.0942 24.5266 21.0954 24.5094 21.0983 24.4865C21.1005 24.4685 21.107 24.4199 21.1237 24.3581C21.1322 24.3268 21.1483 24.2732 21.1771 24.2096C21.2021 24.1546 21.2615 24.0352 21.3798 23.9169L22.794 25.3311ZM22.9392 22.1621C22.8793 21.4674 22.8347 20.9254 22.8051 20.5345C22.7902 20.3388 22.7794 20.1837 22.7723 20.0676C22.7688 20.0096 22.7663 19.9635 22.7648 19.9283C22.764 19.9108 22.7635 19.8972 22.7632 19.887C22.7629 19.8763 22.7629 19.8718 22.7629 19.872H20.7629C20.7629 20.1197 20.8293 20.9731 20.9466 22.3339L22.9392 22.1621ZM22.7629 19.872C22.7629 19.5514 22.6149 19.3221 22.5035 19.1989C22.3983 19.0827 22.2904 19.0183 22.2367 18.9891C22.128 18.93 22.0323 18.9043 22.0014 18.8962C21.9235 18.8757 21.8533 18.8666 21.8207 18.8626C21.7422 18.8529 21.6498 18.8467 21.559 18.8419C21.3698 18.8319 21.0991 18.8242 20.7545 18.8182C20.0614 18.806 19.0282 18.8 17.6589 18.8V20.8C19.0256 20.8 20.0445 20.806 20.7194 20.8178C21.0588 20.8238 21.301 20.8311 21.4539 20.8391C21.4912 20.8411 21.5206 20.843 21.5428 20.8447C21.5539 20.8455 21.5623 20.8462 21.5684 20.8468C21.5747 20.8474 21.5773 20.8477 21.5769 20.8477C21.5766 20.8476 21.5751 20.8474 21.5724 20.8471C21.5698 20.8467 21.5655 20.846 21.5596 20.8451C21.5506 20.8435 21.5258 20.8391 21.4924 20.8304C21.4722 20.825 21.3844 20.8022 21.2811 20.7461C21.2301 20.7183 21.1242 20.6554 21.0204 20.5407C20.9102 20.4189 20.7629 20.1911 20.7629 19.872H22.7629ZM17.6589 18.8H13.5189V20.8H17.6589V18.8ZM12.6487 19.3074L11.5687 21.2154L13.3092 22.2006L14.3892 20.2926L12.6487 19.3074ZM11.5786 21.1982C11.1933 21.8484 10.8973 22.3579 10.6932 22.7228C10.5916 22.9043 10.5083 23.0582 10.4468 23.1794C10.4164 23.2394 10.3867 23.3005 10.3614 23.3581C10.3466 23.392 10.2967 23.5041 10.2703 23.6359L12.2315 24.0281C12.2111 24.1299 12.1789 24.1936 12.1933 24.1608C12.1973 24.1516 12.2084 24.1276 12.2305 24.0841C12.274 23.9983 12.3422 23.8717 12.4387 23.6992C12.6305 23.3561 12.9165 22.8636 13.2992 22.2178L11.5786 21.1982ZM10.3224 23.4606C10.2223 23.7109 10.1636 24.0129 10.2211 24.3388C10.2799 24.6715 10.4448 24.9441 10.6518 25.1511L12.066 23.7369C12.1051 23.7759 12.168 23.8625 12.1907 23.9912C12.2122 24.1131 12.1835 24.1931 12.1794 24.2034L10.3224 23.4606ZM10.5907 25.0842C10.8681 25.4171 11.241 25.6152 11.5966 25.7392C11.958 25.8653 12.3723 25.9395 12.8164 25.9799L12.9975 23.9881C12.6495 23.9565 12.4098 23.9047 12.2553 23.8508C12.0949 23.7948 12.0897 23.7589 12.1271 23.8038L10.5907 25.0842ZM12.9069 25.984C13.0019 25.984 13.0056 25.9973 12.9585 25.979C12.9311 25.9683 12.8846 25.9461 12.8321 25.9037C12.7779 25.8599 12.7267 25.8021 12.6867 25.7321L14.4232 24.7399C14.0469 24.0814 13.3321 23.984 12.9069 23.984V25.984ZM12.6062 25.5522L12.6422 25.6602L14.5396 25.0278L14.5036 24.9198L12.6062 25.5522ZM12.6208 25.1015L12.4408 25.8215L14.3811 26.3065L14.5611 25.5865L12.6208 25.1015ZM12.4324 25.858C12.3886 26.0657 12.3508 26.2029 12.3224 26.2845C12.3084 26.3249 12.302 26.3359 12.3063 26.3276C12.3069 26.3264 12.3386 26.2621 12.4158 26.1849L13.83 27.5991C14.0507 27.3784 14.1582 27.0944 14.2114 26.9415C14.279 26.7471 14.3372 26.5183 14.3895 26.27L12.4324 25.858ZM12.4158 26.1849L12.3078 26.2929L13.722 27.7071L13.83 27.5991L12.4158 26.1849ZM13.0149 26H12.5829V28H13.0149V26ZM12.6311 26.0012C10.617 25.9041 8.70777 25.8796 6.9039 25.9284L6.95794 27.9276C8.70608 27.8804 10.5648 27.9039 12.5348 27.9988L12.6311 26.0012ZM6.89174 25.9288C5.64361 25.9777 5.05681 26 5.05892 26V28C5.10904 28 5.77023 27.9743 6.97011 27.9272L6.89174 25.9288ZM5.05892 26H4.80692V28H5.05892V26ZM5.51403 26.2929L5.40603 26.1849L3.99182 27.5991L4.09982 27.7071L5.51403 26.2929ZM5.40603 26.1849C5.39771 26.1766 5.42533 26.2017 5.45917 26.2609C5.49292 26.3199 5.55492 26.4522 5.55492 26.64H3.55492C3.55492 27.1314 3.85664 27.4639 3.99182 27.5991L5.40603 26.1849ZM5.53053 26.8595L5.85453 25.4195L3.90331 24.9805L3.57931 26.4205L5.53053 26.8595ZM5.71097 25.7547C5.63209 25.873 5.54116 25.9387 5.48681 25.9703C5.43443 26.0007 5.40223 26.0077 5.41034 26.0056C5.41657 26.004 5.44313 25.998 5.49656 25.9927C5.54892 25.9875 5.61822 25.984 5.70692 25.984V23.984C5.43803 23.984 5.15992 24.004 4.9055 24.0704C4.67393 24.1308 4.29538 24.2725 4.04687 24.6453L5.71097 25.7547ZM5.74974 25.9831C7.56996 25.9051 9.10096 25.3747 10.0067 24.1335L8.39113 22.9545C8.00089 23.4893 7.20388 23.9189 5.6641 23.9849L5.74974 25.9831ZM10.0625 24.0482L16.5785 12.8882L14.8513 11.8798L8.33535 23.0398L10.0625 24.0482ZM16.5807 12.8845C18.6685 9.27276 20.2457 6.5532 21.3126 4.72505C21.8463 3.81063 22.2512 3.12112 22.5281 2.6551C22.6669 2.42156 22.7716 2.24742 22.8435 2.13029C22.8799 2.07104 22.9048 2.03135 22.9202 2.00769C22.9282 1.99529 22.9297 1.99326 22.9267 1.99755C22.9253 1.99954 22.919 2.00857 22.9091 2.02137C22.9047 2.02711 22.8752 2.06591 22.83 2.1111L21.4158 0.696898C21.3416 0.771098 21.2893 0.849086 21.2892 0.849334C21.2722 0.873541 21.2558 0.8984 21.2419 0.91984C21.2133 0.963869 21.1785 1.01971 21.1391 1.08383C21.0595 1.21345 20.949 1.39744 20.8088 1.63339C20.5277 2.10637 20.1196 2.80136 19.5852 3.71695C18.5162 5.54879 16.9373 8.27124 14.8492 11.8835L16.5807 12.8845ZM22.83 2.11113C22.8171 2.12407 22.8057 2.1346 22.7969 2.14253C22.788 2.15055 22.7803 2.15711 22.7743 2.16211C22.7627 2.17181 22.754 2.17843 22.7499 2.1815C22.7455 2.1848 22.7432 2.1864 22.7436 2.18611C22.7439 2.1859 22.7458 2.18458 22.7496 2.18205C22.7574 2.17684 22.7699 2.16878 22.7879 2.1575C22.8058 2.14635 22.8275 2.13307 22.8534 2.11749L21.8244 0.402508C21.758 0.442364 21.6949 0.481489 21.6402 0.517948C21.6081 0.539378 21.5064 0.606332 21.4158 0.696871L22.83 2.11113ZM22.184 12.5233C22.052 10.8074 21.953 9.51481 21.8871 8.64535C21.8541 8.21053 21.8294 7.88209 21.813 7.65962C21.7936 7.39681 21.7909 7.3431 21.7909 7.38H19.7909C19.7909 7.4409 19.8048 7.62269 19.8184 7.80687C19.835 8.03141 19.8598 8.36147 19.8928 8.79664C19.9588 9.66719 20.0579 10.9606 20.1899 12.6767L22.184 12.5233ZM21.7909 7.38C21.7909 7.33946 21.7999 6.99006 21.5194 6.69042C21.1139 6.25729 20.5994 6.37296 20.4243 6.44059C20.2573 6.50512 20.1492 6.59933 20.1201 6.62464C20.0751 6.66389 20.0414 6.69998 20.0221 6.72144C19.9553 6.79583 19.8971 6.88049 19.8638 6.92968C19.782 7.05047 19.6716 7.22791 19.5385 7.44878C19.2681 7.89727 18.8674 8.58668 18.3387 9.51186L20.0752 10.5041C20.6025 9.58132 20.9937 8.90872 21.2514 8.48122C21.3823 8.26409 21.4698 8.12503 21.52 8.05082C21.5527 8.00251 21.544 8.02004 21.5102 8.05769C21.4992 8.06996 21.4728 8.09875 21.4339 8.13262C21.411 8.15254 21.308 8.24326 21.1451 8.30619C20.9742 8.37223 20.4628 8.4882 20.0594 8.05727C19.7809 7.75984 19.7909 7.41454 19.7909 7.38H21.7909ZM18.3416 9.50673L15.3176 14.7267L17.0482 15.7293L20.0722 10.5093L18.3416 9.50673ZM15.32 14.7226L13.844 17.2426L15.5698 18.2534L17.0458 15.7334L15.32 14.7226ZM14.6964 18.7479L18.1164 18.7839L18.1374 16.7841L14.7174 16.7481L14.6964 18.7479ZM18.1269 18.784H21.5829V16.784H18.1269V18.784ZM20.5829 17.784C20.5829 17.7825 20.5825 17.7388 20.5879 17.6847C20.593 17.6424 20.6282 17.4866 20.6696 17.3769C21.0278 16.9525 22.0608 16.9058 22.4362 17.2628C22.4882 17.3594 22.5417 17.5001 22.5525 17.5396C22.5574 17.56 22.5645 17.5932 22.5668 17.6057C22.5709 17.6281 22.5732 17.6456 22.5739 17.6509C22.5758 17.6643 22.5769 17.6748 22.5771 17.6769C22.5775 17.6809 22.5778 17.6838 22.5779 17.6851C22.5783 17.6888 22.5783 17.6895 22.5778 17.6837C22.577 17.674 22.5756 17.657 22.5736 17.6314C22.5695 17.5808 22.5634 17.5026 22.5552 17.3963C22.5387 17.1838 22.514 16.8618 22.481 16.4298C22.415 15.5661 22.3161 14.2643 22.1841 12.5244L20.1898 12.6756C20.3218 14.4157 20.4208 15.7179 20.4868 16.5822C20.5198 17.0142 20.5446 17.3372 20.5612 17.5507C20.5694 17.6574 20.5757 17.7374 20.5799 17.7903C20.582 17.8165 20.5837 17.8375 20.5849 17.8523C20.5855 17.8586 20.5863 17.8681 20.5872 17.8772C20.5874 17.8797 20.5878 17.8838 20.5883 17.8887C20.5887 17.8918 20.5898 17.9029 20.5917 17.9168C20.5924 17.9223 20.5948 17.94 20.5989 17.9625C20.6013 17.9751 20.6083 18.0083 20.6133 18.0288C20.6241 18.0683 20.6776 18.209 20.7296 18.3057C21.105 18.6627 22.1381 18.616 22.4962 18.1916C22.5376 18.0819 22.5728 17.926 22.578 17.8837C22.5834 17.8295 22.5829 17.7857 22.5829 17.784H20.5829ZM38.6469 3.276L38.876 4.24951L38.8895 4.24614L38.6469 3.276ZM40.0149 3.384L40.4487 2.483L40.435 2.47638L40.4211 2.47019L40.0149 3.384ZM40.8789 5.04L41.8595 5.23611L41.87 5.18373L41.8748 5.13054L40.8789 5.04ZM40.8069 5.364L41.7675 5.64206L41.7726 5.62438L41.7771 5.60653L40.8069 5.364ZM39.0069 7.2V8.2H39.1692L39.3232 8.14868L39.0069 7.2ZM38.8629 7.236L39.1289 8.19999L39.2229 8.17405L39.3101 8.13043L38.8629 7.236ZM37.0989 6.804L36.3769 7.4959L36.3843 7.50358L36.3918 7.5111L37.0989 6.804ZM36.9189 4.716L37.8027 5.18389L37.8201 5.15096L37.8351 5.11682L36.9189 4.716ZM35.4429 11.16L35.5196 12.1571L35.5867 12.1519L35.6525 12.1378L35.4429 11.16ZM36.7389 11.124L36.9253 10.1415L36.8777 10.1325L36.8295 10.1281L36.7389 11.124ZM39.3669 13.392L40.3397 13.1604L40.3343 13.1375L40.3277 13.1148L39.3669 13.392ZM39.3669 14.976L40.3051 15.3221L40.3293 15.2566L40.3441 15.1884L39.3669 14.976ZM37.7469 19.368L38.6813 19.7243L38.6851 19.7141L37.7469 19.368ZM36.0909 23.796L37.0467 24.0901L37.0616 24.0417L37.0715 23.9921L36.0909 23.796ZM36.0549 25.596L35.3478 26.3031L35.4178 26.3731L35.5002 26.428L36.0549 25.596ZM36.9549 25.632L37.2712 26.5808L37.2843 26.5762L36.9549 25.632ZM39.3309 22.428L38.4365 21.9808L38.4001 22.0535L38.376 22.1312L39.3309 22.428ZM39.4389 22.104L38.4902 21.7878L38.4706 21.8468L38.4583 21.9079L39.4389 22.104ZM39.7989 21.528L39.995 22.5086L40.0561 22.4964L40.1151 22.4767L39.7989 21.528ZM41.2029 21.564L40.4958 22.2711L40.535 22.3103L40.5782 22.3449L41.2029 21.564ZM41.2749 22.176L42.2359 22.4526L42.2433 22.4269L42.2493 22.4009L41.2749 22.176ZM39.1149 26.028L39.7954 26.7608L39.8089 26.7482L39.822 26.7351L39.1149 26.028ZM37.0629 27.288L37.259 28.2686L37.3098 28.2584L37.3593 28.2431L37.0629 27.288ZM35.1549 27.288L34.9124 28.2581L34.9124 28.2581L35.1549 27.288ZM33.4269 26.244L34.2224 25.638L34.2049 25.6151L34.1862 25.5932L33.4269 26.244ZM32.8509 25.092L33.8271 24.8751L33.8261 24.8704L32.8509 25.092ZM32.8509 23.472L31.9143 23.1217L31.889 23.1892L31.8737 23.2596L32.8509 23.472ZM34.5069 19.044L35.4436 19.3943L34.5069 19.044ZM36.2709 14.184L37.2412 14.4266L37.2443 14.413L36.2709 14.184ZM36.2709 13.104L37.2267 12.8099L37.2125 12.7639L37.194 12.7194L36.2709 13.104ZM35.4789 12.816L35.675 13.7966L35.6916 13.7933L35.708 13.7894L35.4789 12.816ZM33.5349 14.472L32.6774 13.9575L32.6774 13.9575L33.5349 14.472ZM32.6709 16.668L33.5653 17.1152L33.6144 17.017L33.6411 16.9105L32.6709 16.668ZM32.5269 16.92L33.234 17.6271L33.234 17.6271L32.5269 16.92ZM31.0869 16.992L30.3798 17.6991L30.6727 17.992H31.0869V16.992ZM30.9789 16.884L31.686 16.1769L31.6469 16.1377L31.6036 16.1031L30.9789 16.884ZM31.0149 16.128L31.9579 16.4608L31.9662 16.4372L31.9734 16.4133L31.0149 16.128ZM33.9309 11.772L33.4164 10.9145L33.3978 10.9257L33.3797 10.9377L33.9309 11.772ZM34.3269 11.556L34.7741 12.4504L34.7936 12.4407L34.8126 12.4302L34.3269 11.556ZM38.8895 4.24614C39.1638 4.17754 39.3907 4.20086 39.6088 4.29781L40.4211 2.47019C39.7752 2.18313 39.09 2.13445 38.4044 2.30586L38.8895 4.24614ZM39.5811 4.285C39.7422 4.36257 39.801 4.43839 39.8303 4.49457C39.864 4.55913 39.9064 4.692 39.883 4.94946L41.8748 5.13054C41.9234 4.596 41.8578 4.05687 41.6035 3.56943C41.3448 3.07361 40.9356 2.71743 40.4487 2.483L39.5811 4.285ZM39.8983 4.84389C39.8768 4.9518 39.8562 5.04394 39.8368 5.12147L41.7771 5.60653C41.8057 5.49206 41.8331 5.3682 41.8595 5.23611L39.8983 4.84389ZM39.8464 5.08594C39.678 5.6676 39.3293 6.03846 38.6907 6.25132L39.3232 8.14868C40.5566 7.73754 41.4079 6.8844 41.7675 5.64206L39.8464 5.08594ZM39.0069 6.2C38.7862 6.2 38.586 6.25643 38.4157 6.34157L39.3101 8.13043C39.2358 8.16757 39.1317 8.2 39.0069 8.2V6.2ZM38.597 6.27201C38.2208 6.37577 38.0123 6.30313 37.806 6.09689L36.3918 7.5111C37.1456 8.26487 38.113 8.48022 39.1289 8.19999L38.597 6.27201ZM37.8209 6.11209C37.6792 5.96422 37.6439 5.85288 37.6362 5.76411C37.6273 5.66024 37.6483 5.47551 37.8027 5.18389L36.0351 4.24811C35.7575 4.77249 35.5926 5.34376 35.6436 5.93589C35.696 6.54312 35.9666 7.06778 36.3769 7.4959L37.8209 6.11209ZM37.8351 5.11682C38.0449 4.63719 38.3664 4.36932 38.876 4.24942L38.4179 2.30258C37.2955 2.56667 36.4649 3.25881 36.0028 4.31518L37.8351 5.11682ZM35.6525 12.1378C35.8517 12.0951 36.1725 12.0766 36.6484 12.1199L36.8295 10.1281C36.2493 10.0754 35.7061 10.0809 35.2334 10.1822L35.6525 12.1378ZM36.5526 12.1065C37.1144 12.213 37.5086 12.4061 37.7866 12.6461C38.0602 12.8822 38.2731 13.208 38.4061 13.6692L40.3277 13.1148C40.1008 12.328 39.6957 11.6518 39.0933 11.1319C38.4953 10.6158 37.7555 10.299 36.9253 10.1415L36.5526 12.1065ZM38.3941 13.6236C38.4763 13.969 38.4808 14.3446 38.3897 14.7636L40.3441 15.1884C40.493 14.5034 40.4975 13.823 40.3397 13.1604L38.3941 13.6236ZM38.4287 14.6299L36.8087 19.0219L38.6851 19.7141L40.3051 15.3221L38.4287 14.6299ZM36.8126 19.0117C36.2724 20.4282 35.8634 21.5076 35.5863 22.2487C35.4479 22.6188 35.3413 22.9073 35.2673 23.1123C35.2305 23.2143 35.2003 23.2996 35.1779 23.3656C35.1661 23.4003 35.129 23.5066 35.1103 23.5999L37.0715 23.9921C37.0588 24.0554 37.0442 24.0894 37.0715 24.0092C37.088 23.9606 37.1133 23.8887 37.1485 23.7912C37.2186 23.5972 37.322 23.3172 37.4596 22.9493C37.7344 22.2144 38.1415 21.1398 38.6813 19.7243L36.8126 19.0117ZM35.1351 23.5019C34.9787 24.0103 34.8748 24.4952 34.8661 24.928C34.8579 25.3404 34.9339 25.8892 35.3478 26.3031L36.762 24.8889C36.9119 25.0388 36.862 25.1556 36.8657 24.968C36.8691 24.8008 36.9151 24.5177 37.0467 24.0901L35.1351 23.5019ZM35.5002 26.428C35.6949 26.5578 35.8949 26.6095 36.029 26.6339C36.1733 26.6601 36.3182 26.668 36.4509 26.668V24.668C36.3916 24.668 36.3746 24.6639 36.3868 24.6661C36.3942 24.6675 36.4181 24.6722 36.453 24.6845C36.4872 24.6966 36.5439 24.7201 36.6096 24.764L35.5002 26.428ZM36.4509 26.668C36.595 26.668 36.7291 26.6648 36.8462 26.6565C36.9376 26.6499 37.1066 26.6355 37.2712 26.5807L36.6387 24.6833C36.6715 24.6724 36.6966 24.6664 36.7097 24.6635C36.7237 24.6605 36.7325 24.6591 36.7346 24.6588C36.7378 24.6583 36.729 24.6597 36.7037 24.6615C36.6527 24.6652 36.5708 24.668 36.4509 24.668V26.668ZM37.2843 26.5762C38.775 26.0562 39.7047 24.5946 40.2859 22.7248L38.376 22.1312C37.8531 23.8134 37.1989 24.4878 36.6255 24.6878L37.2843 26.5762ZM40.2253 22.8752C40.3182 22.6895 40.3805 22.4953 40.4195 22.3001L38.4583 21.9079C38.4494 21.9527 38.4396 21.9745 38.4365 21.9808L40.2253 22.8752ZM40.3876 22.4202C40.437 22.2721 40.4675 22.2191 40.4669 22.22C40.4657 22.222 40.4388 22.266 40.3779 22.3208C40.3159 22.3766 40.1887 22.4698 39.995 22.5086L39.6028 20.5474C39.1179 20.6444 38.864 21.011 38.7709 21.16C38.6504 21.3529 38.5609 21.5759 38.4902 21.7878L40.3876 22.4202ZM40.1151 22.4767C40.0694 22.4919 40.0354 22.4989 40.0235 22.5012C40.0092 22.504 40.0018 22.5048 40.004 22.5045C40.0091 22.5039 40.0294 22.5017 40.0704 22.4995C40.1519 22.4949 40.275 22.492 40.4469 22.492V20.492C40.2588 20.492 40.094 20.4951 39.9595 20.5025C39.8697 20.5075 39.6653 20.5184 39.4827 20.5793L40.1151 22.4767ZM40.4469 22.492C40.664 22.492 40.8041 22.498 40.8831 22.5055C40.9249 22.5095 40.9229 22.5115 40.8953 22.5049C40.8813 22.5015 40.8399 22.4911 40.7848 22.4677C40.7561 22.4555 40.7157 22.4365 40.6694 22.4081C40.6239 22.3803 40.5611 22.3364 40.4958 22.2711L41.91 20.8569C41.7758 20.7226 41.6354 20.656 41.5659 20.6265C41.486 20.5927 41.4135 20.5725 41.362 20.5601C41.2594 20.5355 41.1569 20.5225 41.0727 20.5145C40.8997 20.498 40.6858 20.492 40.4469 20.492V22.492ZM40.5782 22.3449C40.3712 22.1793 40.3258 21.9744 40.3178 21.9058C40.311 21.8483 40.3235 21.8517 40.3005 21.9511L42.2493 22.4009C42.2984 22.1883 42.3348 21.9337 42.3041 21.6722C42.272 21.3995 42.1546 21.0447 41.8276 20.7831L40.5782 22.3449ZM40.3139 21.8994C39.8961 23.3507 39.2518 24.4769 38.4078 25.3209L39.822 26.7351C40.946 25.6111 41.7417 24.1693 42.2359 22.4526L40.3139 21.8994ZM38.4345 25.2952C37.8447 25.8429 37.2874 26.1713 36.7665 26.3329L37.3593 28.2431C38.2304 27.9727 39.0412 27.4611 39.7954 26.7608L38.4345 25.2952ZM36.8668 26.3074C36.7198 26.3368 36.4704 26.36 36.0909 26.36V28.36C36.5275 28.36 36.926 28.3352 37.259 28.2686L36.8668 26.3074ZM36.0909 26.36C35.6679 26.36 35.4616 26.3339 35.3975 26.3179L34.9124 28.2581C35.2322 28.3381 35.65 28.36 36.0909 28.36V26.36ZM35.3975 26.3179C34.7935 26.1669 34.4373 25.9201 34.2224 25.638L32.6315 26.85C33.1845 27.5759 33.9803 28.0251 34.9124 28.2581L35.3975 26.3179ZM34.1862 25.5932C34.005 25.3818 33.8875 25.1468 33.8271 24.8751L31.8747 25.3089C32.0063 25.9012 32.2728 26.4342 32.6677 26.8948L34.1862 25.5932ZM33.8261 24.8704C33.7399 24.4914 33.7378 24.0997 33.8281 23.6844L31.8737 23.2596C31.724 23.9483 31.7219 24.6366 31.8758 25.3136L33.8261 24.8704ZM33.7876 23.8223L35.4436 19.3943L33.5703 18.6937L31.9143 23.1217L33.7876 23.8223ZM35.4436 19.3943C35.9959 17.9173 36.4203 16.7707 36.7159 15.9562C36.9992 15.1757 37.1891 14.6345 37.2411 14.4265L35.3008 13.9415C35.3016 13.9382 35.3 13.9448 35.2936 13.966C35.2877 13.9856 35.2795 14.0121 35.2683 14.0465C35.246 14.1153 35.2152 14.2069 35.1751 14.3228C35.095 14.5544 34.9822 14.8708 34.8359 15.2738C34.5436 16.0793 34.1219 17.2187 33.5703 18.6937L35.4436 19.3943ZM37.2443 14.413C37.3697 13.8803 37.3878 13.3334 37.2267 12.8099L35.3151 13.3981C35.3461 13.4986 35.3642 13.6717 35.2975 13.955L37.2443 14.413ZM37.194 12.7194C37.0396 12.3489 36.7502 12.031 36.3247 11.8762C35.9404 11.7365 35.5559 11.7706 35.2499 11.8426L35.708 13.7894C35.81 13.7654 35.7614 13.7995 35.6412 13.7558C35.5747 13.7316 35.5057 13.69 35.4468 13.6311C35.3897 13.574 35.3607 13.5194 35.3478 13.4886L37.194 12.7194ZM35.2828 11.8354C34.1692 12.0581 33.3226 12.8822 32.6774 13.9575L34.3924 14.9865C34.8993 14.1418 35.3486 13.8619 35.675 13.7966L35.2828 11.8354ZM32.6774 13.9575C32.255 14.6615 31.9345 15.4905 31.7008 16.4255L33.6411 16.9105C33.8393 16.1175 34.0948 15.4825 34.3924 14.9865L32.6774 13.9575ZM31.7765 16.2208C31.7609 16.252 31.7476 16.2779 31.7365 16.299C31.7252 16.3204 31.7174 16.3345 31.7127 16.3429C31.7104 16.3469 31.7095 16.3483 31.7098 16.3477C31.7101 16.3473 31.7127 16.3431 31.7174 16.3361C31.7217 16.3296 31.7309 16.3161 31.7444 16.2985C31.7514 16.2894 31.7608 16.2776 31.7724 16.264C31.7839 16.2506 31.7998 16.2329 31.8198 16.2129L33.234 17.6271C33.3553 17.5058 33.4342 17.3613 33.4492 17.3351C33.4864 17.2701 33.5257 17.1945 33.5653 17.1152L31.7765 16.2208ZM31.8198 16.2129C31.8851 16.1476 31.9479 16.1037 31.9934 16.0759C32.0397 16.0475 32.0801 16.0285 32.1088 16.0163C32.1639 15.9929 32.2053 15.9825 32.2193 15.9791C32.2469 15.9725 32.2489 15.9745 32.2071 15.9785C32.1281 15.986 31.988 15.992 31.7709 15.992V17.992C32.0098 17.992 32.2237 17.986 32.3967 17.9695C32.4809 17.9615 32.5834 17.9485 32.686 17.9239C32.7375 17.9115 32.81 17.8913 32.8899 17.8575C32.9594 17.828 33.0998 17.7614 33.234 17.6271L31.8198 16.2129ZM31.7709 15.992H31.0869V17.992H31.7709V15.992ZM31.794 16.2849L31.686 16.1769L30.2718 17.5911L30.3798 17.6991L31.794 16.2849ZM31.6036 16.1031C31.7568 16.2257 31.8342 16.3751 31.8687 16.4864C31.9002 16.5878 31.8974 16.6587 31.8968 16.6706C31.896 16.6871 31.8987 16.6286 31.9579 16.4608L30.0719 15.7952C29.9871 16.0354 29.9118 16.3069 29.8991 16.5754C29.8876 16.8154 29.9176 17.3155 30.3542 17.6649L31.6036 16.1031ZM31.9734 16.4133C32.5271 14.5526 33.3874 13.3296 34.4822 12.6063L33.3797 10.9377C31.7864 11.9904 30.7027 13.6714 30.0565 15.8427L31.9734 16.4133ZM34.4454 12.6295C34.5405 12.5724 34.6497 12.5126 34.7741 12.4504L33.8797 10.6616C33.7161 10.7434 33.5613 10.8276 33.4164 10.9145L34.4454 12.6295ZM34.8126 12.4302C35.1837 12.2239 35.4104 12.1655 35.5196 12.1571L35.3662 10.1629C34.8514 10.2025 34.3341 10.4081 33.8413 10.6818L34.8126 12.4302Z" fill="black" mask="url(#path-1-outside-1_55_52)"/>
<path d="M41.096 6.15574C39.9697 7.80574 37.8613 8.43047 36.427 7.73008C34.9926 7.02968 34.5781 5.17304 35.7045 3.52304C36.8308 1.87303 38.9392 1.2483 40.3736 1.9487C41.8079 2.6491 42.2224 4.50573 41.096 6.15574Z" fill="#AE00FF" stroke="black"/>
</g>
<defs>
<filter id="filter0_d_55_52" x="0.554932" y="1.19537" width="45.7157" height="34.1646" filterUnits="userSpaceOnUse" color-interpolation-filters="sRGB">
<feFlood flood-opacity="0" result="BackgroundImageFix"/>
<feColorMatrix in="SourceAlpha" type="matrix" values="0 0 0 0 0 0 0 0 0 0 0 0 0 0 0 0 0 0 127 0" result="hardAlpha"/>
<feOffset dy="4"/>
<feGaussianBlur stdDeviation="2"/>
<feComposite in2="hardAlpha" operator="out"/>
<feColorMatrix type="matrix" values="0 0 0 0 0 0 0 0 0 0 0 0 0 0 0 0 0 0 0.25 0"/>
<feBlend mode="normal" in2="BackgroundImageFix" result="effect1_dropShadow_55_52"/>
<feBlend mode="normal" in="SourceGraphic" in2="effect1_dropShadow_55_52" result="shape"/>
</filter>
</defs>
</svg>
